<svg xmlns="http://www.w3.org/2000/svg" width="582.539" height="232.938" viewBox="0 0 582.539 232.938"><g transform="translate(-60 -61)"><g transform="translate(60 61)"><path d="M455.242,58.452C390.688,62,449.441,166.068,388.8,164.325c-7.229-.208-9.963,10.122-3.687,13.612,26.628,14.8,25.752,30.341,26.264,56.1.241,12.2,3.045,24.146,9.777,34.476,13.108,20.107,36.275,27.251,58.622,20.248,8.943-2.8,5.126-16.91-3.883-14.087-26.082,8.171-47.655-10.775-49.9-37.032-1.027-11.984,2.174-23.827-.174-35.793-3.583-18.278-17.985-27.993-33.33-36.524q-1.842,6.8-3.687,13.612c17.118.493,32.866-6.435,41.108-22.117,11.328-21.565-8.108-81.92,25.333-83.756,9.351-.512,9.41-15.126,0-14.61Z" transform="translate(-381.613 -58.438)" fill="#00868d"/></g><g transform="translate(539.282 61)"><path d="M540.46,73.062c33.037,1.814,14.039,62.061,25.333,83.756,8.142,15.641,24.1,22.607,41.1,22.117q-1.841-6.81-3.687-13.612c-15.334,8.524-29.74,18.253-33.327,36.524-2.107,10.723.2,21.416-.171,32.188-.942,27-21.153,49.647-49.906,40.637-8.995-2.819-12.841,11.283-3.887,14.087,22.485,7.044,45.322-.267,58.622-20.248,6.076-9.124,9.051-20.022,9.777-30.871.486-7.24-1.309-14.54-.8-21.717,1.428-19.951,10.849-28.972,27.066-37.985,6.268-3.487,3.549-13.824-3.691-13.612-60.181,1.732-2.062-102.338-66.438-105.873-9.4-.516-9.365,14.1,0,14.61Z" transform="translate(-510.83 -58.438)" fill="#00868d"/></g><g transform="translate(145.942 92.099)"><g transform="translate(0 0)"><path d="M439.646,150.693H425.774q-10.048,0-15.515-5.345t-5.475-15.4V89.619q0-10.048,5.475-15.393t15.515-5.345h13.872q9.92,0,15.46,5.408t5.53,15.33V95.6a2.471,2.471,0,0,1-2.8,2.8H447.153c-1.784,0-2.671-.931-2.671-2.8V90.383q0-4.073-1.718-5.786t-5.79-1.721h-8.657c-2.63,0-4.51.571-5.656,1.721s-1.718,3.071-1.718,5.786v38.8q0,4.078,1.718,5.79c1.146,1.146,3.026,1.721,5.656,1.721h8.657q4.067,0,5.79-1.721t1.718-5.79v-5.215c0-1.866.887-2.8,2.671-2.8h10.686a2.474,2.474,0,0,1,2.8,2.8v5.979q0,9.926-5.53,15.333T439.646,150.693Z" transform="translate(-404.784 -61.248)"/><path d="M423.128,129.825v-2.544a2.357,2.357,0,0,1,2.67-2.671h10.816a2.356,2.356,0,0,1,2.667,2.671V128.3q0,4.835,1.914,6.617t7,1.784h5.979q4.963,0,6.932-1.91t1.973-7.125v-1.528a6.378,6.378,0,0,0-2.989-5.66,15.757,15.757,0,0,0-7.444-2.355,80.985,80.985,0,0,1-9.6-1.461,62.534,62.534,0,0,1-9.607-2.8,15.063,15.063,0,0,1-7.441-6.743Q423,102.091,423,94.2V89.749q0-9.931,5.6-15.4t15.523-5.471H456.84q10.053,0,15.652,5.471t5.6,15.4v2.415a2.365,2.365,0,0,1-2.67,2.674H464.6a2.364,2.364,0,0,1-2.674-2.674V91.4q0-4.963-1.906-6.743t-7-1.78h-4.967q-5.213,0-7.062,1.973t-1.84,7.7v2.418q0,5.981,10.43,6.869a64.51,64.51,0,0,1,19.213,4.329,16.281,16.281,0,0,1,7.444,6.806q2.988,4.9,2.986,12.529v4.329q0,9.926-5.6,15.393t-15.519,5.475H444.248q-9.926,0-15.523-5.475T423.128,129.825Z" transform="translate(-355.44 -61.248)"/><path d="M449.159,129.825v-2.544a2.36,2.36,0,0,1,2.674-2.671h10.816a2.358,2.358,0,0,1,2.667,2.671V128.3q0,4.835,1.914,6.617t7,1.784H480.2q4.963,0,6.932-1.91t1.973-7.125v-1.528a6.378,6.378,0,0,0-2.99-5.66,15.771,15.771,0,0,0-7.444-2.355,80.981,80.981,0,0,1-9.6-1.461,62.527,62.527,0,0,1-9.607-2.8,15.084,15.084,0,0,1-7.444-6.743q-2.988-5.024-2.99-12.915V89.749q0-9.931,5.6-15.4t15.523-5.471h12.722q10.054,0,15.652,5.471t5.6,15.4v2.415a2.365,2.365,0,0,1-2.671,2.674H490.638a2.364,2.364,0,0,1-2.674-2.674V91.4q0-4.963-1.906-6.743t-7-1.78H474.1q-5.213,0-7.062,1.973t-1.84,7.7v2.418q0,5.981,10.43,6.869a64.511,64.511,0,0,1,19.213,4.329,16.3,16.3,0,0,1,7.444,6.806q2.988,4.9,2.986,12.529v4.329q0,9.926-5.6,15.393t-15.519,5.475H470.283q-9.926,0-15.527-5.475T449.159,129.825Z" transform="translate(-284.908 -61.248)"/><path d="M499.736,138.334H488.413q-10.053,0-15.526-5.345t-5.467-15.4V94.181q0-10.048,5.467-15.393t15.526-5.345h11.324q9.92,0,15.456,5.408t5.538,15.33v23.412q0,9.926-5.538,15.333T499.736,138.334Zm-8.909-13.868h6.491q4.067,0,5.79-1.654t1.717-5.727V94.693q0-4.073-1.717-5.727t-5.79-1.654h-6.491q-4.073,0-5.727,1.654t-1.651,5.727v22.392q0,4.073,1.651,5.727T490.827,124.466Z" transform="translate(-235.099 -48.889)"/><path d="M527.5,127.01v8.779a2.728,2.728,0,0,1-.575,1.97,2.962,2.962,0,0,1-2.1.575H505.872q-10.054,0-15.523-5.345t-5.471-15.4V94.181q0-10.048,5.471-15.393t15.523-5.345H524.83a2.366,2.366,0,0,1,2.674,2.674v8.776a2.739,2.739,0,0,1-.575,1.973,2.963,2.963,0,0,1-2.1.571H508.417q-3.945,0-5.664,1.721t-1.717,5.786v21.884q0,4.078,1.717,5.79t5.664,1.721H524.83A2.362,2.362,0,0,1,527.5,127.01Z" transform="translate(-187.797 -48.889)"/><path d="M512.806,156.268H501.991a2.365,2.365,0,0,1-2.671-2.674v-84.1a2.362,2.362,0,0,1,2.671-2.671h10.816a2.362,2.362,0,0,1,2.674,2.671V98.247h.508q2.8-6.871,12.47-6.869h4.073q19.968,0,19.974,20.738v41.479q0,2.671-2.8,2.674H539.019a2.364,2.364,0,0,1-2.674-2.674V112.879q0-4.067-1.717-5.786t-5.786-1.721H524.26q-8.78,0-8.78,9.673v38.549A2.364,2.364,0,0,1,512.806,156.268Z" transform="translate(-148.675 -66.823)"/></g></g><g transform="translate(147.408 212.03)"><path d="M416.7,133.68h-2.355a.651.651,0,0,1-.734-.734v-29.12c0-.312-.174-.471-.523-.471h-7.122c-.527,0-.786-.241-.786-.731v-1.888c0-.486.26-.731.786-.731h19.113c.527,0,.786.245.786.731v1.888c0,.49-.26.731-.786.731h-7.121c-.349,0-.523.159-.523.471v29.12A.651.651,0,0,1,416.7,133.68Z" transform="translate(-405.179 -96.86)" fill="#00868d"/><path d="M415.043,135.977h-2.355a.648.648,0,0,1-.731-.734V99.891a.647.647,0,0,1,.731-.734h2.355a.649.649,0,0,1,.734.734v12.151h.208q1.313-2.776,5.345-2.774h2.93a7.393,7.393,0,0,1,5.553,2.04,7.836,7.836,0,0,1,1.992,5.708v18.227a.651.651,0,0,1-.734.734h-2.355a.649.649,0,0,1-.734-.734V117.172q0-4.551-4.4-4.555h-2.934a4.907,4.907,0,0,0-3.613,1.257,4.825,4.825,0,0,0-1.258,3.564v17.8A.65.65,0,0,1,415.043,135.977Z" transform="translate(-386.817 -99.157)" fill="#00868d"/><path d="M419.256,104.828V99.906c0-.493.226-.734.682-.734h2.407a.648.648,0,0,1,.734.734v4.922a.646.646,0,0,1-.734.731h-2.407C419.482,105.559,419.256,105.318,419.256,104.828Zm0,30.374V109.958c0-.486.226-.731.682-.731h2.407a.648.648,0,0,1,.734.731V135.2a.651.651,0,0,1-.734.734h-2.355A.651.651,0,0,1,419.256,135.2Z" transform="translate(-367.043 -99.116)" fill="#00868d"/><path d="M425.4,128.592H423.04a.651.651,0,0,1-.734-.734V102.614a.648.648,0,0,1,.734-.731H425.4a.645.645,0,0,1,.731.731v2.044h.212c.872-1.851,2.659-2.774,5.341-2.774h2.938a7.375,7.375,0,0,1,5.545,2.04,7.819,7.819,0,0,1,1.988,5.708v18.227a.646.646,0,0,1-.731.734h-2.352a.654.654,0,0,1-.742-.734V109.787q0-4.551-4.391-4.555H431a4.9,4.9,0,0,0-3.616,1.257,4.841,4.841,0,0,0-1.261,3.564v17.8A.648.648,0,0,1,425.4,128.592Z" transform="translate(-358.78 -91.772)" fill="#00868d"/><path d="M432.625,135.977h-2.359a.648.648,0,0,1-.731-.734V99.891a.646.646,0,0,1,.731-.734h2.359a.651.651,0,0,1,.734.734v35.352A.652.652,0,0,1,432.625,135.977Zm12.043-26.709h2.623a.567.567,0,0,1,.545.234c.089.159.048.36-.13.6l-7.7,11.943v.211l8.487,12.882a.557.557,0,0,1,.052.6.64.64,0,0,1-.575.237h-2.463a1.62,1.62,0,0,1-1.465-.734l-8.067-12.463a1.051,1.051,0,0,1,0-1.1l7.437-11.732A1.249,1.249,0,0,1,444.668,109.268Z" transform="translate(-339.196 -99.157)" fill="#00868d"/><path d="M439.682,107.673v6.339c0,.486-.226.734-.682.734h-2.67c-.456,0-.679-.248-.679-.734v-6.339a.6.6,0,0,1,.679-.679H439A.6.6,0,0,1,439.682,107.673Z" transform="translate(-322.629 -77.926)" fill="#00868d"/><path d="M456.151,133.68h-6.283a7.722,7.722,0,0,1-5.682-2.047,7.642,7.642,0,0,1-2.07-5.7V107.753A7.125,7.125,0,0,1,449.868,100h6.283a7.121,7.121,0,0,1,7.752,7.748v2.567a.648.648,0,0,1-.731.734h-2.359a.649.649,0,0,1-.734-.734v-2.407q0-4.557-4.4-4.559h-5.393q-4.351,0-4.347,4.559v17.856q0,4.562,4.347,4.559h5.393q4.4,0,4.4-4.559v-2.411a.649.649,0,0,1,.734-.731h2.359a.648.648,0,0,1,.731.731v2.57a7.126,7.126,0,0,1-7.752,7.752Z" transform="translate(-305.112 -96.86)" fill="#00868d"/><path d="M452.845,128.592h-2.359a.648.648,0,0,1-.731-.734V102.614a.645.645,0,0,1,.731-.731h2.359a.647.647,0,0,1,.731.731v2.1h.211a4.556,4.556,0,0,1,1.988-1.992,6.874,6.874,0,0,1,3.457-.835h2.04c.456,0,.686.245.686.731v1.94a.828.828,0,0,1-.156.549.554.554,0,0,1-.53.13h-2.823a4.584,4.584,0,0,0-3.616,1.417,5.621,5.621,0,0,0-1.257,3.876v17.333A.649.649,0,0,1,452.845,128.592Z" transform="translate(-284.417 -91.772)" fill="#00868d"/><path d="M473.027,128.592H461.922a7.72,7.72,0,0,1-5.679-2.047,7.642,7.642,0,0,1-2.069-5.7V109.631a7.119,7.119,0,0,1,7.748-7.748h4.4a7.077,7.077,0,0,1,7.7,7.748v6.65c0,.523-.241.786-.731.786H458.469c-.352,0-.523.156-.523.471v3.2q0,4.557,4.4,4.555h10.682a.646.646,0,0,1,.734.731v1.888C473.762,128.362,473.517,128.592,473.027,128.592Zm-14.558-14.3h11.313a.463.463,0,0,0,.523-.527v-4.032q0-4.5-4.4-4.5h-3.557q-4.4,0-4.4,4.5v4.032A.462.462,0,0,0,458.469,114.294Z" transform="translate(-272.446 -91.772)" fill="#00868d"/><path d="M471.595,128.592h-2.726a7.719,7.719,0,0,1-5.679-2.047,7.642,7.642,0,0,1-2.07-5.7V109.631a7.12,7.12,0,0,1,7.748-7.748h11.368a.645.645,0,0,1,.731.731v25.244a.648.648,0,0,1-.731.734h-2.359a.652.652,0,0,1-.734-.734v-2.044h-.208Q475.628,128.59,471.595,128.592Zm5.549-8.171V105.707c0-.315-.171-.475-.523-.475h-7.329q-4.351,0-4.347,4.555v10.894q0,4.562,4.347,4.559h2.982a4.889,4.889,0,0,0,3.616-1.257A4.824,4.824,0,0,0,477.143,120.421Z" transform="translate(-253.628 -91.772)" fill="#00868d"/><path d="M471.327,109.4h-2.882c-.49,0-.731-.226-.731-.679v-1.94a.645.645,0,0,1,.731-.731h2.882c.349,0,.523-.156.523-.471v-4.507a.649.649,0,0,1,.734-.734h2.359q.679,0,.679.734v4.507c0,.315.189.471.575.471h5.552c.527,0,.786.245.786.731v1.94c0,.452-.259.679-.786.679H476.2c-.386,0-.575.16-.575.475V124.96q0,4.451,4.611,4.451h2.044c.523,0,.786.241.786.731v1.94c0,.452-.263.683-.786.683h-2.515a8.078,8.078,0,0,1-5.76-2.018,7.35,7.35,0,0,1-2.151-5.63V109.879C471.85,109.564,471.676,109.4,471.327,109.4Z" transform="translate(-235.764 -95.944)" fill="#00868d"/><path d="M492.061,128.592H480.956a7.72,7.72,0,0,1-5.679-2.047,7.643,7.643,0,0,1-2.07-5.7V109.631a7.12,7.12,0,0,1,7.749-7.748h4.4a7.657,7.657,0,0,1,5.66,2.04,7.737,7.737,0,0,1,2.04,5.708v6.65c0,.523-.245.786-.735.786H477.5c-.352,0-.523.156-.523.471v3.2q0,4.557,4.4,4.555h10.683a.644.644,0,0,1,.73.731v1.888C492.791,128.362,492.55,128.592,492.061,128.592Zm-14.559-14.3h11.309a.462.462,0,0,0,.523-.527v-4.032q0-4.5-4.4-4.5h-3.557q-4.4,0-4.4,4.5v4.032A.462.462,0,0,0,477.5,114.294Z" transform="translate(-220.883 -91.772)" fill="#00868d"/><path d="M484.189,107.673v6.339c0,.486-.23.734-.686.734h-2.671c-.456,0-.679-.248-.679-.734v-6.339a.6.6,0,0,1,.679-.679H483.5A.6.6,0,0,1,484.189,107.673Z" transform="translate(-202.063 -77.926)" fill="#00868d"/><path d="M500.655,133.68h-6.279a7.131,7.131,0,0,1-7.756-7.752V107.753A7.126,7.126,0,0,1,494.376,100h6.279a7.724,7.724,0,0,1,5.686,2.044,7.645,7.645,0,0,1,2.066,5.7v2.567a.648.648,0,0,1-.731.734h-2.359a.647.647,0,0,1-.731-.734v-2.407q0-4.557-4.4-4.559h-5.4q-4.351,0-4.347,4.559v17.856q0,4.562,4.347,4.559h5.4q4.4,0,4.4-4.559v-2.411a.647.647,0,0,1,.731-.731h2.359a.648.648,0,0,1,.731.731v2.57a7.64,7.64,0,0,1-2.066,5.7A7.726,7.726,0,0,1,500.655,133.68Z" transform="translate(-184.546 -96.86)" fill="#00868d"/><path d="M506.369,128.592h-4.5a7.13,7.13,0,0,1-7.748-7.752V109.631a7.12,7.12,0,0,1,7.748-7.748h4.5a7.12,7.12,0,0,1,7.752,7.748V120.84a7.642,7.642,0,0,1-2.07,5.7A7.723,7.723,0,0,1,506.369,128.592Zm-4.08-3.353h3.661q4.4,0,4.4-4.5v-11q0-4.5-4.4-4.5h-3.661q-4.4,0-4.4,4.5v11Q497.89,125.237,502.289,125.239Z" transform="translate(-164.233 -91.772)" fill="#00868d"/><path d="M511.808,135.977h-3.093a7.379,7.379,0,0,1-5.549-2.047,7.813,7.813,0,0,1-1.988-5.7V117.016a7.834,7.834,0,0,1,1.988-5.708,7.39,7.39,0,0,1,5.549-2.04h3.093q4.084,0,5.393,2.774h.208V99.891c0-.49.23-.734.686-.734H520.5q.679,0,.678.734v35.352c0,.486-.226.734-.678.734H518.1c-.456,0-.686-.249-.686-.734V133.2H517.2Q515.894,135.976,511.808,135.977Zm5.6-8.171V117.439a4.838,4.838,0,0,0-1.253-3.564,4.906,4.906,0,0,0-3.617-1.257h-3.19q-4.351,0-4.347,4.555v10.894q0,4.562,4.347,4.558h3.19a4.891,4.891,0,0,0,3.617-1.257A4.823,4.823,0,0,0,517.409,127.806Z" transform="translate(-145.106 -99.157)" fill="#00868d"/><path d="M527.232,128.592H516.127a7.719,7.719,0,0,1-5.679-2.047,7.642,7.642,0,0,1-2.07-5.7V109.631a7.12,7.12,0,0,1,7.748-7.748h4.4a7.077,7.077,0,0,1,7.7,7.748v6.65c0,.523-.245.786-.735.786H512.674c-.352,0-.523.156-.523.471v3.2q0,4.557,4.4,4.555h10.682a.644.644,0,0,1,.731.731v1.888C527.963,128.362,527.722,128.592,527.232,128.592Zm-14.558-14.3h11.309a.462.462,0,0,0,.523-.527v-4.032q0-4.5-4.4-4.5H516.55q-4.4,0-4.4,4.5v4.032A.462.462,0,0,0,512.674,114.294Z" transform="translate(-125.598 -91.772)" fill="#00868d"/><path d="M519.362,107.673v6.339c0,.486-.23.734-.686.734h-2.667c-.46,0-.682-.248-.682-.734v-6.339a.6.6,0,0,1,.682-.679h2.667A.6.6,0,0,1,519.362,107.673Z" transform="translate(-106.778 -77.926)" fill="#00868d"/></g></g></svg>