<svg xmlns="http://www.w3.org/2000/svg" width="225.669" height="233.884" viewBox="0 0 225.669 233.884"><g transform="translate(-2842 -1054)"><path d="M94.909,187.175a95.808,95.808,0,0,1-19.171-1.932,94.606,94.606,0,0,1-34.014-14.313A95.4,95.4,0,0,1,7.26,129.078a94.683,94.683,0,0,1-5.542-17.856A95.67,95.67,0,0,1,0,98.479a24.562,24.562,0,0,0,6.4-.147,86.751,86.751,0,0,0,8.561,32.086,88.224,88.224,0,0,0,8.463,13.927,89.042,89.042,0,0,0,143.2-.315,88.162,88.162,0,0,0,8.437-14.038,86.751,86.751,0,0,0,8.4-32.32,24.539,24.539,0,0,0,4.286.377c.7,0,1.4-.03,2.1-.09a95.013,95.013,0,0,1-94.941,89.215ZM15.692,52.709h0A24.333,24.333,0,0,0,9.6,49.927,95.111,95.111,0,0,1,70.836,0a24.862,24.862,0,0,0,.176,7.561c-.32.089-.658.185-1.006.286A88.91,88.91,0,0,0,15.692,52.708Zm158.359-.147h0a88.313,88.313,0,0,0-13.7-19.6A88.983,88.983,0,0,0,119.772,7.836l-.422-.121a24.855,24.855,0,0,0,.224-7.558,94.615,94.615,0,0,1,28.52,13.017,95.433,95.433,0,0,1,31.959,36.416,24.382,24.382,0,0,0-6,2.973Z" transform="translate(2858.212 1069.642)" fill="#817de7"/><path d="M16.372-23.9,55.906-39.787,95.439-23.9c9.537,5.32,16.372,7.33,16.372,16.372V38.4A16.372,16.372,0,0,1,95.439,54.769H16.372A16.372,16.372,0,0,1,0,38.4V-7.526C0-16.569,16.372-23.9,16.372-23.9Z" transform="translate(2896.985 1233.115)" fill="#c5d5ea"/><circle cx="41.706" cy="41.706" r="41.706" transform="translate(2911.129 1119.13)" fill="#c5d5ea"/><g transform="translate(3024.249 1121.415)" fill="#c5d5ea" stroke="#fff" stroke-width="5"><ellipse cx="21.71" cy="21.424" rx="21.71" ry="21.424" stroke="none"/><ellipse cx="21.71" cy="21.424" rx="19.21" ry="18.924" fill="none"/></g><g transform="translate(3027.677 1123.7)" opacity="0.5"><rect width="37.707" height="37.707" transform="translate(0 0)" fill="none"/><path d="M51,1.152V4.317h9.494V1.152Zm0-18.988v3.165H66.823v-3.165ZM66.823,7.481V4.317H79.481V1.152H66.823V-2.012H63.658V7.481ZM57.329-11.506v3.165H51v3.165h6.329v3.165h3.165v-9.494ZM79.481-5.177V-8.342H63.658v3.165Zm-9.494-6.329h3.165v-3.165h6.329v-3.165H73.152V-21H69.988Z" transform="translate(-46.505 25.705)" fill="#000d37"/></g><g transform="translate(2935.124 1054)" fill="#c5d5ea"><path d="M 18.85334396362305 35.20668411254883 C 14.48521423339844 35.20668411254883 10.37852382659912 33.50564575195312 7.289783954620361 30.41690444946289 C 4.201044082641602 27.32816314697266 2.500004053115845 23.22147369384766 2.500004053115845 18.85334396362305 C 2.500004053115845 14.48521423339844 4.201044082641602 10.37852382659912 7.289783954620361 7.289783954620361 C 10.37852382659912 4.201044082641602 14.48521423339844 2.500004053115845 18.85334396362305 2.500004053115845 C 23.22147369384766 2.500004053115845 27.32816314697266 4.201044082641602 30.41690444946289 7.289783954620361 C 33.50564575195312 10.37852382659912 35.20668411254883 14.48521423339844 35.20668411254883 18.85334396362305 C 35.20668411254883 23.22147369384766 33.50564575195312 27.32816314697266 30.41690444946289 30.41690444946289 C 27.32816314697266 33.50564575195312 23.22147369384766 35.20668411254883 18.85334396362305 35.20668411254883 Z" stroke="none"/><path d="M 18.85334396362305 5.000003814697266 C 15.15298461914062 5.000003814697266 11.67410469055176 6.441003799438477 9.057554244995117 9.057554244995117 C 6.441003799438477 11.67410469055176 5.000003814697266 15.15298461914062 5.000003814697266 18.85334396362305 C 5.000003814697266 22.55370330810547 6.441003799438477 26.03258514404297 9.057554244995117 28.64913368225098 C 11.67410469055176 31.26568412780762 15.15298461914062 32.70668411254883 18.85334396362305 32.70668411254883 C 22.55370330810547 32.70668411254883 26.03258514404297 31.26568412780762 28.64913368225098 28.64913368225098 C 31.26568412780762 26.03258514404297 32.70668411254883 22.55370330810547 32.70668411254883 18.85334396362305 C 32.70668411254883 15.15298461914062 31.26568412780762 11.67410469055176 28.64913368225098 9.057554244995117 C 26.03258514404297 6.441003799438477 22.55370330810547 5.000003814697266 18.85334396362305 5.000003814697266 M 18.85334396362305 3.814697265625e-06 C 29.26575469970703 3.814697265625e-06 37.70668411254883 8.440933227539062 37.70668411254883 18.85334396362305 C 37.70668411254883 29.26575469970703 29.26575469970703 37.70668411254883 18.85334396362305 37.70668411254883 C 8.440933227539062 37.70668411254883 3.814697265625e-06 29.26575469970703 3.814697265625e-06 18.85334396362305 C 3.814697265625e-06 8.440933227539062 8.440933227539062 3.814697265625e-06 18.85334396362305 3.814697265625e-06 Z" stroke="none" fill="#fff"/></g><g transform="translate(2842 1124.272)" fill="#c5d5ea" stroke="#fff" stroke-width="5"><ellipse cx="19.139" cy="18.853" rx="19.139" ry="18.853" stroke="none"/><ellipse cx="19.139" cy="18.853" rx="16.639" ry="16.353" fill="none"/></g><text transform="translate(2944.265 1082.57)" fill="#61708f" font-size="31" font-family="Helvetica-Bold, Helvetica" font-weight="700" letter-spacing="0.01em"><tspan x="0" y="0">$</tspan></text><g transform="translate(2848.284 1129.985)" opacity="0.5"><rect transform="translate(0 0)" fill="none"/><path d="M2.6,23.424a2.61,2.61,0,0,1-2.6-2.6V2.6A2.61,2.61,0,0,1,2.6,0H18.219l5.205,5.2V20.822a2.61,2.61,0,0,1-2.6,2.6Zm0-2.6H20.821V6.246L17.179,2.6H2.6Zm5.206-5.206a3.9,3.9,0,1,1,3.9,3.9A3.9,3.9,0,0,1,7.809,15.616ZM3.9,9.11V3.9H15.615V9.11Z" transform="translate(1.714 1.143)"/></g></g></svg>