<svg xmlns="http://www.w3.org/2000/svg" width="399.352" height="323.099" viewBox="0 0 399.352 323.099"><g transform="translate(-1323 -157.5)"><circle cx="43.481" cy="43.481" r="43.481" transform="translate(1323 222.244)" fill="#ceb0ff"/><rect width="31.239" height="163.794" rx="6" transform="translate(1351.706 316.806)" fill="#ceb0ff"/><path d="M146.976,71.163c0,6.274-7.162,11.361-16,11.361H34.995L3,105.245V14.361C3,8.086,10.162,3,19,3H130.979c8.835,0,16,5.086,16,11.361Z" transform="translate(1416.113 155.5)" fill="none" stroke="#ceb0ff" stroke-linecap="round" stroke-linejoin="round" stroke-width="2"/><circle cx="43.481" cy="43.481" r="43.481" transform="translate(1635.39 261.082)" fill="#ceb0ff"/><rect width="31.239" height="120.734" rx="6" transform="translate(1663.252 359.865)" fill="#ceb0ff"/><path d="M3,71.163c0,6.274,7.162,11.361,16,11.361h95.984l31.995,22.721V14.361c0-6.274-7.162-11.361-16-11.361H19C10.162,3,3,8.086,3,14.361Z" transform="translate(1482.812 197.715)" fill="none" stroke="#ceb0ff" stroke-linecap="round" stroke-linejoin="round" stroke-width="2"/></g></svg>