<svg xmlns="http://www.w3.org/2000/svg" xmlns:xlink="http://www.w3.org/1999/xlink" width="893.636" height="475.57" viewBox="0 0 893.636 475.57">
  <defs>
    <linearGradient id="linear-gradient" x1="0.5" y1="1" x2="0.5" y2="-0.001" gradientUnits="objectBoundingBox">
      <stop offset="0" stop-color="gray" stop-opacity="0.251"/>
      <stop offset="0.54" stop-color="gray" stop-opacity="0.122"/>
      <stop offset="1" stop-color="gray" stop-opacity="0.102"/>
    </linearGradient>
  </defs>
  <g id="undraw_programming_2svr" transform="translate(-0.011 -0.035)">
    <path id="Path_1840" data-name="Path 1840" d="M904.5,548.992q-1.493,3.218-2.978,6.351-2.317,4.866-4.574,9.543c-.669,1.382-1.339,2.738-1.991,4.094-7.381,15.079-14.272,28.415-20.125,39.383a62.829,62.829,0,0,1-54.763,33.213l-130.148,1.416h-1.373l-11.157.12-9.543.1-29.265.318h-1.184l-14.9.163h-.455l-91.829,1-81.968.858-9.535.1-59.217.644h-.069l-38.4.412h-.412L219.17,648.021l-36.328.395a75.582,75.582,0,0,1-22.889-3.278A74.141,74.141,0,0,1,126.406,623.9a171.592,171.592,0,0,1-34.612-59.011q-1.656-4.711-3.09-9.543c-26.442-89.383,5.793-204.7,63.808-281.871q3.647-4.84,7.415-9.44l.06-.069c17.842-21.9,37.847-40.2,59.157-53.209,37.761-23.094,79.6-29.6,120.75-10.213,34.818,16.409,67.327,24.124,98.84,26.218,3.184.206,6.368.36,9.535.455,72.287,2.274,140.034-23.772,219.591-40.585,3.167-.669,6.342-1.33,9.543-1.957,56.754-11.294,119.712-17.25,194.582-4.729a162.278,162.278,0,0,1,22.966,5.493q4.952,1.6,9.543,3.433c35.736,14.538,55.226,41.4,63.508,75.059q1.176,4.686,2.034,9.535C984.721,354.427,941.716,469.273,904.5,548.992Z" transform="translate(-79.34 -172.91)" fill="#3fe4fb" opacity="0.1"/>
    <g id="Group_664" data-name="Group 664" transform="translate(9.365 11.737)" opacity="0.1">
      <path id="Path_1841" data-name="Path 1841" d="M232.457,217V654.362l-36.328.395a75.584,75.584,0,0,1-22.889-3.278V270.209h.06C191.142,248.282,211.147,229.985,232.457,217Z" transform="translate(-102.017 -190.893)" fill="#3fe4fb"/>
      <path id="Path_1842" data-name="Path 1842" d="M982.167,288.509H164.6q3.647-4.84,7.415-9.44V279H980.133Q981.309,283.66,982.167,288.509Z" transform="translate(-100.792 -199.684)" fill="#3fe4fb"/>
      <path id="Path_1843" data-name="Path 1843" d="M1039.243,190.937V557.394h-2.978q-2.317,4.866-4.574,9.543c-.669,1.382-1.339,2.738-1.991,4.094V187.47Q1034.652,189.066,1039.243,190.937Z" transform="translate(-223.453 -186.706)" fill="#3fe4fb"/>
      <path id="Path_1844" data-name="Path 1844" d="M774.633,186.58v458.5l-9.543.1V188.537C768.257,187.867,771.432,187.206,774.633,186.58Z" transform="translate(-185.934 -186.58)" fill="#3fe4fb"/>
      <path id="Path_1845" data-name="Path 1845" d="M507.645,236.075V654.522l-9.535.1v-419C501.294,235.826,504.478,235.946,507.645,236.075Z" transform="translate(-148.08 -193.533)" fill="#3fe4fb"/>
      <path id="Path_1846" data-name="Path 1846" d="M903.063,618.52q-2.317,4.866-4.574,9.543H93.34q-1.656-4.711-3.09-9.543Z" transform="translate(-90.25 -247.824)" fill="#3fe4fb"/>
    </g>
    <rect id="Rectangle_10" data-name="Rectangle 10" width="16.306" height="49.485" transform="translate(181.599 228.143)" fill="#3f3d56"/>
    <rect id="Rectangle_11" data-name="Rectangle 11" width="16.306" height="52.351" transform="translate(620.429 225.569)" fill="#3f3d56"/>
    <path id="Path_1847" data-name="Path 1847" d="M755.767,529.609v11.157l-130.38,1.2-1.39.026-49.553.455-1.184.017-15.062.129h-.446l-91.812.85-150.711,1.4H315.1l-38.319.36-.412.009L106.1,546.773V533.9l40.036-24.03,80.329-.669,1.716-.009.566-.009,1.716-.026,38.568-.318,1.725-.009.549-.009,1.716-.009,12.367-.1.326-.009,30.509-.257h.249l238.068-2.008,5.827-.043h.584l4.446-.043,32.312-.266,1.716-.026,1.588-.017h.824l10.05-.077,1.991-.026,2.669-.017,8.368-.077,13.277-.112,1.716-.017,2.987-.017h.558l64.117-.549Z" transform="translate(-15.042 -71.619)" fill="#65617d"/>
    <path id="Path_1848" data-name="Path 1848" d="M755.767,529.609v11.157l-130.38,1.2-1.39.026-49.553.455-1.184.017-15.062.129h-.446l-91.812.85-150.711,1.4H315.1l-38.319.36-.412.009L106.1,546.773V533.9l40.036-24.03,80.329-.669,1.716-.009.566-.009,1.716-.026,38.568-.318,1.725-.009.549-.009,1.716-.009,12.367-.1.326-.009,30.509-.257h.249l238.068-2.008,5.827-.043h.584l4.446-.043,32.312-.266,1.716-.026,1.588-.017h.824l10.05-.077,1.991-.026,2.669-.017,8.368-.077,13.277-.112,1.716-.017,2.987-.017h.558l64.117-.549Z" transform="translate(-15.042 -71.619)" opacity="0.2"/>
    <path id="Path_1849" data-name="Path 1849" d="M368.752,656.57v21.018a5.261,5.261,0,0,1-3,4.754,5.148,5.148,0,0,1-2.146.515l-29.952.635a5.149,5.149,0,0,1-2.317-.489,5.252,5.252,0,0,1-3.064-4.78V656.57Z" transform="translate(-114.634 -241.482)" fill="#3f3d56"/>
    <path id="Path_1850" data-name="Path 1850" d="M368.752,656.57v21.018a5.261,5.261,0,0,1-3,4.754,5.148,5.148,0,0,1-2.146.515l-29.952.635a5.149,5.149,0,0,1-2.317-.489,5.252,5.252,0,0,1-3.064-4.78V656.57Z" transform="translate(-114.634 -241.482)" opacity="0.1"/>
    <path id="Path_1851" data-name="Path 1851" d="M370.752,656.57v21.018a5.261,5.261,0,0,1-3,4.754,5.148,5.148,0,0,1-2.145.515l-29.952.635a5.15,5.15,0,0,1-2.317-.489,5.252,5.252,0,0,1-3.064-4.78V656.57Z" transform="translate(-114.917 -241.482)" fill="#3f3d56"/>
    <rect id="Rectangle_12" data-name="Rectangle 12" width="40.482" height="27.034" transform="translate(584.384 415.088)" fill="#3f3d56"/>
    <rect id="Rectangle_13" data-name="Rectangle 13" width="40.482" height="27.034" transform="translate(584.384 415.088)" opacity="0.1"/>
    <rect id="Rectangle_14" data-name="Rectangle 14" width="40.482" height="27.034" transform="translate(582.668 415.088)" fill="#3f3d56"/>
    <path id="Path_1852" data-name="Path 1852" d="M227.906,265.82v4.918l-16.306-.421v-4.5Z" transform="translate(-30.001 -37.685)" opacity="0.1"/>
    <path id="Path_1853" data-name="Path 1853" d="M404.137,274.856,384.544,415.6a3.69,3.69,0,0,1-3.75,3.184l-156.881-4.068-2.978-.077a3.69,3.69,0,0,1-3.57-4.18l22-147.338a3.69,3.69,0,0,1,3.9-3.115L400.7,270.668a3.682,3.682,0,0,1,3.433,4.188Z" transform="translate(-98.904 -185.253)" fill="#65617d"/>
    <path id="Path_1854" data-name="Path 1854" d="M173.189,99.16,156.6,229.033l144.18,4.574,17.731-125.3Z" transform="translate(-22.202 -14.055)" fill="#3fe4fb"/>
    <rect id="Rectangle_15" data-name="Rectangle 15" width="175.65" height="148.754" rx="5.33" transform="translate(330.07 83.097)" fill="#65617d"/>
    <rect id="Rectangle_16" data-name="Rectangle 16" width="159.627" height="123.866" transform="translate(338.36 93.112)" fill="#3fe4fb"/>
    <path id="Path_1855" data-name="Path 1855" d="M739.236,262.82v3.253l-16.306.335V262.82Z" transform="translate(-102.501 -37.26)" opacity="0.1"/>
    <path id="Path_1856" data-name="Path 1856" d="M877.3,407.627a2.643,2.643,0,0,1-2.575,2.815l-160.657,3.321a2.643,2.643,0,0,1-2.686-2.394L697.578,267.807a2.643,2.643,0,0,1,2.506-2.892l159.439-7.93,1.716-.086A2.635,2.635,0,0,1,864,259.3Z" transform="translate(-166.995 -184.813)" fill="#65617d"/>
    <path id="Path_1857" data-name="Path 1857" d="M628.93,101.977,774.543,94.82l12.3,130.448L642.378,228.7Z" transform="translate(-89.173 -13.439)" fill="#3fe4fb"/>
    <path id="Path_1858" data-name="Path 1858" d="M904.062,407.627a2.643,2.643,0,0,1-2.575,2.815L886.28,256.985,888,256.9a2.635,2.635,0,0,1,2.763,2.4Z" transform="translate(-193.753 -184.813)" opacity="0.1"/>
    <path id="Path_1859" data-name="Path 1859" d="M243.283,260l-19.37,154.719-2.978-.077a3.69,3.69,0,0,1-3.57-4.18l22-147.338A3.69,3.69,0,0,1,243.283,260Z" transform="translate(-98.904 -185.252)" opacity="0.1"/>
    <rect id="Rectangle_17" data-name="Rectangle 17" width="16.306" height="14.658" transform="translate(181.599 262.97)" opacity="0.1"/>
    <path id="Path_1860" data-name="Path 1860" d="M291.412,483.65v4.265L250.93,489V483.65Z" transform="translate(-35.577 -68.571)" opacity="0.1"/>
    <path id="Path_1861" data-name="Path 1861" d="M432.4,484.71V629.061a3.433,3.433,0,0,1-3.3,3.39l-164.476,4.377h-.043a3.433,3.433,0,0,1-3.39-3.39V484.71a3.433,3.433,0,0,1,3.39-3.39H429.013a3.433,3.433,0,0,1,3.39,3.39Z" transform="translate(-105.123 -216.634)" fill="#65617d"/>
    <path id="Path_1862" data-name="Path 1862" d="M264.623,481.32V636.828h-.043a3.433,3.433,0,0,1-3.39-3.39V484.71a3.433,3.433,0,0,1,3.39-3.39Z" transform="translate(-105.123 -216.634)" opacity="0.1"/>
    <path id="Path_1863" data-name="Path 1863" d="M194.6,319.15H346.933V446.38L194.6,449.813Z" transform="translate(-27.59 -45.247)" fill="#d4dfec"/>
    <rect id="Rectangle_18" data-name="Rectangle 18" width="16.306" height="14.95" transform="translate(620.429 262.97)" opacity="0.1"/>
    <path id="Path_1864" data-name="Path 1864" d="M719.412,483.65v5.5L678.93,488.07v-4.42Z" transform="translate(-96.262 -68.571)" opacity="0.1"/>
    <path id="Path_1865" data-name="Path 1865" d="M839.4,484.71V633.438a3.433,3.433,0,0,1-3.433,3.39h0l-164.511-4.377a3.433,3.433,0,0,1-3.3-3.39V484.71a3.433,3.433,0,0,1,3.39-3.39H835.973a3.433,3.433,0,0,1,3.424,3.39Z" transform="translate(-162.825 -216.634)" fill="#65617d"/>
    <path id="Path_1866" data-name="Path 1866" d="M867.123,484.71V633.438a3.433,3.433,0,0,1-3.433,3.39h0V481.32h0a3.433,3.433,0,0,1,3.433,3.39Z" transform="translate(-190.55 -216.634)" opacity="0.1"/>
    <path id="Path_1867" data-name="Path 1867" d="M750.433,319.15H598.1V446.38l152.333,3.433Z" transform="translate(-84.802 -45.247)" fill="#d4dfec"/>
    <path id="Path_1868" data-name="Path 1868" d="M634.9,484.71V629.061a3.433,3.433,0,0,1-3.3,3.39l-164.476,4.377h0a3.433,3.433,0,0,1-3.433-3.39V484.71a3.433,3.433,0,0,1,3.39-3.39H631.513A3.433,3.433,0,0,1,634.9,484.71Z" transform="translate(-133.835 -216.634)" fill="#65617d"/>
    <path id="Path_1869" data-name="Path 1869" d="M397.1,319.15H549.433V446.38L397.1,449.813Z" transform="translate(-56.302 -45.247)" fill="#d4dfec"/>
    <path id="Path_1870" data-name="Path 1870" d="M755.767,533.65v11.157l-130.38,1.2-1.39.026-49.553.455-1.184.017-15.062.129h-.446l-91.812.85-150.711,1.4H315.1l-38.319.36-.412.009L106.1,550.814V537.941L279.9,536.8h.412l35.178-.24h.163l242.943-1.6h.249l.146-.009h.4l4.111-.026h1.253l63.928-.429,3.776-.017.841-.009Z" transform="translate(-15.042 -75.66)" opacity="0.1"/>
    <circle id="Ellipse_9" data-name="Ellipse 9" cx="44.052" cy="44.052" r="44.052" transform="translate(374.122 189.524)" fill="#fbbebe"/>
    <path id="Path_1871" data-name="Path 1871" d="M383.74,671.621a1.065,1.065,0,0,1,.086-.3c.858-3.081,2.386-8.29,3.527-12.453.146-.515.283-1.021.412-1.5,1.262-4.694,3.716-15.688,5.081-22.545.481-2.412.858-4.291.935-5.235.172-1.45,2.755-7.655,5.681-14.787,2.051-5.012,4.291-10.487,5.93-15.1a52.673,52.673,0,0,0,2.515-8.453,4.377,4.377,0,0,0,0-1.828,12.606,12.606,0,0,1-.412-3h0c-.2-5.321,1.39-13.731,3.845-17.259,3-4.291,5.149-20.305,5.149-20.305s4.446.644,5.149-3.03a5.278,5.278,0,0,0,.086-1.2,6.362,6.362,0,0,0-.077-.953c-.764-5.355,12.633-11.054,20.168-12.281a16.874,16.874,0,0,1,2.575-.24,23.375,23.375,0,0,0,5.364-1.236q1.2-.369,2.575-.858c3.158-1.064,6.934-2.472,10.942-4.016,15.07-5.844,33.316-13.731,33.316-13.731.129-.609.275-1.193.438-1.768a23.781,23.781,0,0,1,14.032-16.246h0v-1.716c0-2.961-.129-6.007-.257-9.046,0-.592-.051-1.184-.086-1.777v-.97c0-.6-.06-1.2-.094-1.794l-.154-.12a14.082,14.082,0,0,1-3.347-3.6,13.1,13.1,0,0,1-1.219-2.575c-1.073-2.909-1.322-6.153-2.042-9.226l-.154-.635a72.094,72.094,0,0,0-3.433-9.08c-1.9-4.652-3.356-9.44-4.806-14.289q-1.322-4.4-2.669-8.822l-1.356-4.5c-.257-.858-.515-1.716-.712-2.575h0a11.382,11.382,0,0,1-.223-1.2h0a8.582,8.582,0,0,1,.206-3.956,27.553,27.553,0,0,1,1.133-2.575,6.759,6.759,0,0,0,.429-1.184h0a2.584,2.584,0,0,0,.069-.275,4.848,4.848,0,0,0,.094-.927,15.844,15.844,0,0,0-.446-3.338.06.06,0,0,1,0-.043,2.188,2.188,0,0,0-.043-.232,21.885,21.885,0,0,1-.309-2.575,24.417,24.417,0,0,1,2.978-13.362l.163-.309a21.647,21.647,0,0,1,1.579-2.386h0a12.056,12.056,0,0,1,.858-1.047c-1.2,1.15-3.175.644-4.291-.592a3.1,3.1,0,0,1-.472-.644,3.278,3.278,0,0,1-.2-.386c-.043-.1-.077-.215-.112-.326-.6-2.1.446-4.343,1.819-6.05a15.867,15.867,0,0,1,4.926-4.034h0a3.311,3.311,0,0,1,.343-.18,14.7,14.7,0,0,1,2.266-.91h0a12.918,12.918,0,0,1,1.4-.378l-3.184-.292-1.287-.12a12.435,12.435,0,0,1,11.157-9.363h.927a10.065,10.065,0,0,1,1.347.112,3.811,3.811,0,0,1-2.274-3.716,12.367,12.367,0,0,0,7.887,2.626h.326a25.742,25.742,0,0,1-.292-2.806h0a28.456,28.456,0,0,1,0-3.828,7.243,7.243,0,0,0,5.819,1.94l-1.785-2.489a8.144,8.144,0,0,0,5.63,1.759l.412-.043a6.009,6.009,0,0,0,1.021-.2h.077c-.163-.206-.309-.421-.455-.644l-.052-.1a8.3,8.3,0,0,1-.858-1.794,5.657,5.657,0,0,1-.206-.747h0a7.51,7.51,0,0,1,.386-4.677c2.772,2.317,5.81,5.484,9.44,3.09s3.75-6.788,9.44-6.342a8.754,8.754,0,0,1,7.218,5.252,5.793,5.793,0,0,1,6.583-1.5,5.879,5.879,0,0,1,3.33,5.913c2.36-.592,4.9-1.176,7.166-.283s3.725,3.785,2.437,5.716a1.233,1.233,0,0,1-.12.172c-1.056,1.365-3.39,2.111-3.141,3.828l.36.257,1.116.807q6.565,4.737,12.787,9.955c2.128,1.785,4.394,3.931,4.54,6.72a7.418,7.418,0,0,1-.206,2.034h0c-.137.669-.326,1.339-.472,2.008a16.743,16.743,0,0,0-.292,5.192h0c.06.506.137,1,.232,1.51,1.313,6.634,6.617,12.109,7.14,18.881v.481a15.251,15.251,0,0,1-.06,2.171c-.395,4.119-2.3,8.076-3.845,12.015-.094.24-.189.481-.275.721a119.558,119.558,0,0,0-6.008,24.167,86.031,86.031,0,0,1-1.716,8.659,22.94,22.94,0,0,1-4.368,8.951,13.918,13.918,0,0,1-2.884,2.575,16.021,16.021,0,0,1-2.274,1.21v.052c.094.523.172,1.047.266,1.57.052.275.094.549.146.858h0a.118.118,0,0,0,0,.052c.721,4.059,1.545,8.033,2.412,11.809l.438,1.879c10.813,3.9,12.092,11.9,12.169,14.967a8.269,8.269,0,0,1,0,1.227s16.306.429,22.743,5.149a17.451,17.451,0,0,0,3.871,1.974,71.223,71.223,0,0,0,7.938,2.48c1.382.36,2.823.712,4.291,1.056,2.575.592,5.3,1.167,7.938,1.716,7.029,1.416,13.646,2.575,17,3.433,8.007,2.025,26.321,19.584,26.321,19.584s2.146,17.714,4.291,20.3,6.007,11.663,6.007,11.663l14.195,25.24,6.008,10.616h3.862a6.566,6.566,0,0,1,2.755,1.8c1.021.91,2.154,2.043,3.15,3.072l1.648,1.759,1.03,1.141s6.239.154,7.93,5.089c5.081-.146,11.32.189,15.688,2.146a12.137,12.137,0,0,1,1.716.927,7.449,7.449,0,0,1,3.544,4.857,7.167,7.167,0,0,1,.154,1.236c0,.489,0,.978,0,1.459-.309,6.5-4.54,11.9-8.428,15.542l.275.489s-.129.309-.378.858c-.069.163-.154.343-.249.549h0c-.506,1.081-1.313,2.7-2.369,4.6a54.336,54.336,0,0,1-8.213,11.3l-.249.258-49.553.455-.146-.172-9.612-11.466-4.78-5.7-.146-.18-.137,1.365-.463,4.549-1.116,10.994-.06.549v.146l-.129,1.27.094-1.27h-.249l-91.829.858L422.677,671.2v.721h-.12V671.2l-38.4.412Z" transform="translate(-122.499 -197.728)" fill="url(#linear-gradient)"/>
    <path id="Path_1872" data-name="Path 1872" d="M605.088,534.469s-85.392,10.3-77.239,0c2.952-3.725,3.768-14.761,3.6-27.334-.052-3.819-.189-7.775-.386-11.715-.944-18.881-3.218-37.332-3.218-37.332s74.664-35.187,66.082-7.295c-3.433,11.268-2.309,27.094.3,41.949.764,4.334,1.648,8.582,2.575,12.616a295.8,295.8,0,0,0,8.282,29.111Z" transform="translate(-142.854 -210.781)" fill="#fbbebe"/>
    <path id="Path_1873" data-name="Path 1873" d="M605.088,544.924s-85.392,10.3-77.239,0c2.952-3.725,3.768-14.761,3.6-27.334,13.019-5.561,29.583-1.416,29.583-1.416,17.439-3.476,28.621-2.8,35.77-.36a295.812,295.812,0,0,0,8.282,29.111Z" transform="translate(-142.854 -221.235)" opacity="0.1"/>
    <path id="Path_1874" data-name="Path 1874" d="M422.712,695.707v-.721l150.719-1.639,91.829-.858h.258l-.094,1.27.129-1.27h.163v-.146l1.176-11.543.446-4.368.137-1.365.12-1.141,5.3-17.688,5.3-17.662,4.463-14.873,6.814-22.725s-3.862-9.011-6.007-11.586-4.291-20.168-4.291-20.168-18.314-17.448-26.321-19.456c-3.356-.858-9.981-2-17.018-3.433-2.635-.532-5.338-1.1-7.938-1.716-1.468-.335-2.909-.687-4.291-1.038a75.415,75.415,0,0,1-7.938-2.454,17.763,17.763,0,0,1-3.862-1.965c-6.308-4.626-22.116-5.149-22.725-5.149h0a.353.353,0,0,1,0-.06v-.077a8.8,8.8,0,0,0,0-1.081,6.884,6.884,0,0,0-.077-1.2,1.083,1.083,0,0,0-.06-.429c-.043-.309-.094-.635-.172-.978a4.293,4.293,0,0,0-.1-.455,14.772,14.772,0,0,0-1.073-3c-.06-.137-.137-.283-.206-.421a15.659,15.659,0,0,0-1.459-2.257c-.112-.146-.232-.3-.36-.446a16.8,16.8,0,0,0-2.334-2.266c-.232-.18-.472-.369-.721-.541a4,4,0,0,0-.438-.309l-.764-.5-.712-.412c-.626-.343-1.287-.678-2.008-1-.223-.1-.463-.2-.7-.292s-.618-.24-.935-.36h-.052l-.644-.257c-.489-.163-.987-.309-1.51-.455l-.8-.206-.858-.2-.858-.18c-.858-.172-1.776-.326-2.738-.446l-.978-.12-1-.1-1.038-.086L565,515.8l-1.716-.06a107.028,107.028,0,0,0-22.529,2.4,62.021,62.021,0,0,0-15.661-1.444h-.747l-.858.051h-.549l-1.107.1a8.225,8.225,0,0,0-1.116.129c-.369.051-.755.094-1.124.154l-.566.094c-.558.094-1.124.2-1.716.318q-.283.051-.566.129c-.747.163-1.493.36-2.231.584-.369.1-.738.223-1.107.352-.189.052-.369.12-.549.189l-.549.2-.541.215-.644.257c-.326.137-.644.283-.961.438-.18.077-.36.163-.532.258s-.352.172-.515.266a23.817,23.817,0,0,0-5.33,3.759l-.438.42-.429.438c-.146.146-.283.3-.421.455a20.449,20.449,0,0,0-1.562,1.931c-.137.18-.266.36-.395.549a22.909,22.909,0,0,0-1.476,2.506c-.112.206-.215.421-.318.626a28.062,28.062,0,0,0-1.716,4.506q-.24.858-.438,1.716s-18.168,8.016-33.239,13.817c-4.008,1.545-7.784,2.944-10.942,4-.918.309-1.776.592-2.575.858a22.918,22.918,0,0,1-5.364,1.236,16.873,16.873,0,0,0-2.575.24c-6.926,1.124-18.795,6.008-20.091,10.908a3.167,3.167,0,0,0-.086,1.2s0,.06,0,.094c.858,6.008-5.149,5.149-5.149,5.149s-2.146,15.877-5.149,20.168c-2.171,3.09-3.656,9.981-3.845,15.182h0a16.829,16.829,0,0,0,.378,4.832v.12c.343,1.15-.481,4.291-1.879,8.316-1.519,4.42-3.733,9.912-5.862,15.1-3.21,7.827-6.231,14.933-6.419,16.495-.077.7-.3,1.94-.609,3.544-1.253,6.54-4.034,18.992-5.407,24.03-1.021,3.759-2.506,8.908-3.527,12.444a1.2,1.2,0,0,1-.086.3l38.474-.378v.721h.12Z" transform="translate(-122.56 -221.514)" fill="#3fe4fb"/>
    <path id="Path_1875" data-name="Path 1875" d="M445.44,607.57s48.918,25.317,66.511,22.314Z" transform="translate(-131.247 -234.535)" opacity="0.1"/>
    <path id="Path_1876" data-name="Path 1876" d="M561.44,595.57s47.631,15.448,63.508,17.593S561.44,595.57,561.44,595.57Z" transform="translate(-147.694 -232.833)" opacity="0.1"/>
    <path id="Path_1877" data-name="Path 1877" d="M607.8,534.832c-24.888,4.583-71.746,3.6-92,2.9,7.424-26.6,43.623-17.559,43.623-17.559C604.23,511.231,607.663,529.785,607.8,534.832Z" transform="translate(-141.223 -221.802)" opacity="0.1"/>
    <path id="Path_1878" data-name="Path 1878" d="M607.8,532.832c-24.888,4.583-71.746,3.6-92,2.9,7.424-26.6,43.623-17.559,43.623-17.559C604.23,509.231,607.663,527.785,607.8,532.832Z" transform="translate(-141.223 -221.519)" fill="#3fe4fb"/>
    <path id="Path_1879" data-name="Path 1879" d="M776.94,672.194s29.317-4.506,29.892,8.368-14.95,21.867-14.95,21.867Z" transform="translate(-178.25 -243.589)" fill="#fbbebe"/>
    <path id="Path_1880" data-name="Path 1880" d="M594.314,492.743a40.35,40.35,0,0,1-3.862,1.493c-9.252,3.193-18.58,6.411-28.321,7.578s-19.962.137-28.458-4.72a24.681,24.681,0,0,1-2.575-1.674c-.944-18.881-3.218-37.332-3.218-37.332s74.664-35.187,66.082-7.295C590.547,462.062,591.705,477.887,594.314,492.743Z" transform="translate(-142.936 -210.781)" opacity="0.1"/>
    <path id="Path_1881" data-name="Path 1881" d="M546.2,363a8.127,8.127,0,0,1-7.14-1.5l1.785,2.48a7.269,7.269,0,0,1-5.819-1.931,29.252,29.252,0,0,0,.275,6.651,12.461,12.461,0,0,1-8.2-2.575,3.793,3.793,0,0,0,2.266,3.7,12.307,12.307,0,0,0-13.388,9.191l4.48.412a15.85,15.85,0,0,0-8.96,5.467c-1.373,1.716-2.42,3.913-1.819,6.008s3.5,3.433,5.081,1.94a23.978,23.978,0,0,0-5.235,19.559,12.417,12.417,0,0,1,.395,4.514c-.283,1.416-1.176,2.643-1.622,4.025-.858,2.506-.043,5.227.721,7.724l4.025,13.234c1.459,4.78,2.909,9.569,4.815,14.195a70.442,70.442,0,0,1,3.433,9.02c1.081,4.154,1.124,8.7,3.433,12.332a17.1,17.1,0,0,0,6.162,5.432c8.488,4.857,18.743,5.887,28.458,4.72s19.035-4.385,28.278-7.578a26.6,26.6,0,0,0,5.87-2.575c6.394-4.188,7.818-12.753,9.011-20.3a115.249,115.249,0,0,1,6.256-24.717c1.871-4.712,4.291-9.492,3.879-14.538-.523-6.7-5.827-12.135-7.14-18.726a16.306,16.306,0,0,1,.06-6.668,15.156,15.156,0,0,0,.678-4.034c-.146-2.763-2.412-4.892-4.54-6.668q-6.926-5.784-14.3-10.934c-.249-1.716,2.086-2.454,3.141-3.81,1.493-1.914-.051-4.952-2.317-5.844s-4.806-.309-7.166.283a5.656,5.656,0,0,0-9.912-4.385,8.754,8.754,0,0,0-7.226-5.218c-5.69-.446-5.8,3.9-9.44,6.3s-6.643-.764-9.44-3.064A7.964,7.964,0,0,0,546.2,363Z" transform="translate(-140.106 -198.277)" fill="#3f3d56"/>
    <path id="Path_1882" data-name="Path 1882" d="M788.47,688.887s-.764,1.819-2.171,4.454a59.216,59.216,0,0,1-7.724,11.3l-.232.249h-1.39l-49.553.455h-1.184l-.146-.172-9.612-11.406-3.622-4.3-.146-.18-.309-.36-.172-.206-.223-.266L704.94,680.1l2.575-10.728L711.9,651.3l.112-.438.858-3.433.609-2.575,2.043-8.393,7-28.879,12.444,6.437,13.122,23.172,7.046,12.444H759c.729,0,2.4,1.408,4.085,3.03.6.575,1.2,1.184,1.716,1.716,1.528,1.579,2.738,2.935,2.738,2.935s6.256.137,7.938,5.063a6,6,0,0,1,.215.729,34.588,34.588,0,0,0,2.171,5.63c1.107,2.412,2.5,5.149,3.9,7.887,2.618,5.021,5.278,9.8,6.256,11.534l.12.215Z" transform="translate(-168.041 -234.536)" fill="#3fe4fb"/>
    <path id="Path_1883" data-name="Path 1883" d="M675.62,655.52l-.086,1.227v.086l-.146,1.974-1.141,15.885-1.382,19.138-.395,5.39-.858,11.534v.146l-91.829.858L429.09,713.389v.721h-.12v-.961l.386-12.324.738-24.081.635-20.417.06-2.034a9.037,9.037,0,0,1,9.8-8.728c4.051.343,9.312.764,15.6,1.21l2.575.189c36.328,2.523,103.466,5.784,171.213,1.716,1.425-.077,2.858-.163,4.291-.266,10.5-.661,21-1.51,31.393-2.575a9.037,9.037,0,0,1,9.955,9.638Z" transform="translate(-128.912 -239.917)" opacity="0.1"/>
    <path id="Path_1884" data-name="Path 1884" d="M429.08,714.681v-.721L579.8,712.321l91.829-.858h.257v-.146l.858-11.534.369-5.149,1.407-19.4,1.107-15.362v-.378a9.115,9.115,0,0,0-.094-2.12.259.259,0,0,0,0-.086,8.918,8.918,0,0,0-1.717-3.982,9.045,9.045,0,0,0-8.084-3.433c-10.393,1.064-20.889,1.914-31.393,2.575-1.433.1-2.866.189-4.291.266-67.747,4.025-134.885.764-171.213-1.716l-2.575-.189c-6.291-.446-11.552-.858-15.6-1.21a9.046,9.046,0,0,0-9.646,7.321,9.445,9.445,0,0,0-.154,1.407l-.584,19.018-.8,24.09-.378,12.324v.961Z" transform="translate(-128.927 -240.489)" fill="#3f3d56"/>
    <path id="Path_1885" data-name="Path 1885" d="M675.9,663.173l-1.056,13.156-1.571,19.61-.395,4.909-.858,10.994-.051.549v.146h0l-.129,1.27.094-1.27h-.249l-91.829.858L429.11,715.026v-.24l.421-12.324.858-24.081.549-16.006a5.458,5.458,0,0,1,2.626-4.506,5.364,5.364,0,0,1,3.244-.772c1.8.146,4.016.318,6.6.506,4.2.309,9.372.669,15.4,1.047,11.157.7,25.154,1.459,41.194,2.077,44.627,1.716,104.874,2.291,162.1-2.721,2.575-.223,5.235-.472,7.835-.721a5.372,5.372,0,0,1,2.987.566,4.426,4.426,0,0,1,.738.464,5.269,5.269,0,0,1,1.716,2.111,3.061,3.061,0,0,1,.214.523A5.388,5.388,0,0,1,675.9,663.173Z" transform="translate(-128.932 -241.554)" opacity="0.1"/>
    <path id="Path_1886" data-name="Path 1886" d="M370.752,677.87v2.738a5.261,5.261,0,0,1-3,4.754l-34.414.661a5.252,5.252,0,0,1-3.064-4.78v-2.575Z" transform="translate(-114.917 -244.502)" opacity="0.1"/>
    <path id="Path_1887" data-name="Path 1887" d="M291.192,514.341l-44.842.858v-7.441l44.842-.858Z" transform="translate(-34.928 -71.867)" fill="#3f3d56"/>
    <path id="Path_1888" data-name="Path 1888" d="M291.192,514.341l-44.842.858v-7.441l44.842-.858Z" transform="translate(-34.928 -71.867)" opacity="0.1"/>
    <path id="Path_1889" data-name="Path 1889" d="M293.192,514.341l-44.842.858v-7.441l44.842-.858Z" transform="translate(-35.211 -71.867)" fill="#3f3d56"/>
    <g id="Group_665" data-name="Group 665" transform="translate(368.161 158.182)" opacity="0.1">
      <path id="Path_1890" data-name="Path 1890" d="M552.646,360.945a8.368,8.368,0,0,1-1.622-3.725,8.144,8.144,0,0,0,.36,3.948A7.725,7.725,0,0,0,552.646,360.945Z" transform="translate(-514.365 -357.22)"/>
      <path id="Path_1891" data-name="Path 1891" d="M540.178,367.675a30.147,30.147,0,0,1-.318-3.175c0,1.056,0,2.12,0,3.184Z" transform="translate(-512.796 -358.252)"/>
      <path id="Path_1892" data-name="Path 1892" d="M621.72,400.379a15.727,15.727,0,0,1,.309-2.274,15.447,15.447,0,0,0,.687-4.025,5.288,5.288,0,0,0-.137-.91c-.146.79-.378,1.579-.549,2.36a16.425,16.425,0,0,0-.309,4.849Z" transform="translate(-524.394 -362.317)"/>
      <path id="Path_1893" data-name="Path 1893" d="M600.927,369.951l.935.678a16.913,16.913,0,0,0,2.206-1.905,3.15,3.15,0,0,0,.326-3.124,2.575,2.575,0,0,1-.326.549C603.012,367.505,600.678,368.252,600.927,369.951Z" transform="translate(-521.452 -358.408)"/>
      <path id="Path_1894" data-name="Path 1894" d="M518.637,380.29a10.568,10.568,0,0,0-.747,1.957,15.586,15.586,0,0,1,4.291-1.622Z" transform="translate(-509.681 -360.491)"/>
      <path id="Path_1895" data-name="Path 1895" d="M532.282,369.236a12.724,12.724,0,0,1-1.613-1.056,3.644,3.644,0,0,0,.077,1.013A10.183,10.183,0,0,1,532.282,369.236Z" transform="translate(-511.492 -358.774)"/>
      <path id="Path_1896" data-name="Path 1896" d="M613.023,428.33c-.352,4.162-2.292,8.17-3.862,12.118a115.207,115.207,0,0,0-6.256,24.725c-1.193,7.544-2.575,16.109-9.011,20.288a25.743,25.743,0,0,1-5.861,2.575c-9.252,3.2-18.58,6.411-28.321,7.578s-19.962.146-28.458-4.712a17.165,17.165,0,0,1-6.162-5.432c-2.291-3.63-2.334-8.179-3.433-12.333a70.545,70.545,0,0,0-3.433-9.028c-1.9-4.617-3.355-9.44-4.806-14.186q-2.017-6.617-4.025-13.242a24.728,24.728,0,0,1-.978-4.076,15.382,15.382,0,0,0,.978,6.651q2.008,6.634,4.025,13.242c1.45,4.78,2.909,9.569,4.806,14.186a70.559,70.559,0,0,1,3.433,9.028c1.081,4.154,1.124,8.7,3.433,12.332a17.165,17.165,0,0,0,6.162,5.432c8.5,4.857,18.743,5.879,28.458,4.712s19.035-4.377,28.321-7.578a25.742,25.742,0,0,0,5.862-2.575c6.394-4.18,7.818-12.745,9.011-20.288a115.207,115.207,0,0,1,6.256-24.725c1.871-4.7,4.291-9.483,3.879-14.538C613.04,428.433,613.023,428.381,613.023,428.33Z" transform="translate(-508.324 -367.302)"/>
      <path id="Path_1897" data-name="Path 1897" d="M510.5,423.229v-.094a12.014,12.014,0,0,0-.395-4.506,22.822,22.822,0,0,1-.335-2.849,23.474,23.474,0,0,0,.335,5.424C510.246,421.873,510.4,422.551,510.5,423.229Z" transform="translate(-508.525 -365.523)"/>
      <path id="Path_1898" data-name="Path 1898" d="M513.183,399.162a23.806,23.806,0,0,1,2.24-3.15c-1.57,1.5-4.471.163-5.081-1.922a5,5,0,0,0,0,2.575A3.768,3.768,0,0,0,513.183,399.162Z" transform="translate(-508.587 -362.448)"/>
    </g>
    <path id="Path_1899" data-name="Path 1899" d="M763.24,656.57s2.721,9.869,0,18.452S763.24,656.57,763.24,656.57Z" transform="translate(-176.136 -241.482)" opacity="0.1"/>
    <path id="Path_1900" data-name="Path 1900" d="M776.561,668.3s1.141,12.53-1.433,14.753S776.561,668.3,776.561,668.3Z" transform="translate(-177.87 -243.145)" opacity="0.1"/>
    <line id="Line_1" data-name="Line 1" y1="0.858" x2="87.203" transform="translate(170.777 293.393)" fill="none" stroke="#3fe4fb" stroke-miterlimit="10" stroke-width="2"/>
    <line id="Line_2" data-name="Line 2" y1="0.85" x2="87.203" transform="translate(170.777 304.104)" fill="none" stroke="#3fe4fb" stroke-miterlimit="10" stroke-width="2"/>
    <line id="Line_3" data-name="Line 3" y1="0.858" x2="87.203" transform="translate(170.777 314.806)" fill="none" stroke="#3fe4fb" stroke-miterlimit="10" stroke-width="2"/>
  </g>
</svg>
