<svg xmlns="http://www.w3.org/2000/svg" xmlns:xlink="http://www.w3.org/1999/xlink" width="1043.805" height="555.486" viewBox="0 0 1043.805 555.486"><defs><linearGradient id="a" x1="0.5" y1="1" x2="0.5" y2="-0.001" gradientUnits="objectBoundingBox"><stop offset="0" stop-color="gray" stop-opacity="0.251"/><stop offset="0.54" stop-color="gray" stop-opacity="0.122"/><stop offset="1" stop-color="gray" stop-opacity="0.102"/></linearGradient></defs><g transform="translate(-0.011 -0.035)"><path d="M1043.154,612.184q-1.744,3.759-3.479,7.418-2.706,5.684-5.343,11.147c-.782,1.614-1.564,3.2-2.326,4.782-8.621,17.612-16.67,33.19-23.507,46a73.388,73.388,0,0,1-63.965,38.794L792.517,721.98h-1.6l-13.032.14-11.147.12-34.183.371h-1.383l-17.4.19h-.531l-107.26,1.163-95.742,1-11.137.12-69.168.752h-.08l-44.859.481h-.481l-141.844,1.534-42.433.461a88.287,88.287,0,0,1-26.735-3.829,86.6,86.6,0,0,1-39.185-24.81c-18.224-20.079-31.506-43.505-40.428-68.927q-1.935-5.5-3.609-11.147c-30.885-104.4,6.766-239.1,74.53-329.237q4.26-5.654,8.661-11.027l.07-.08c20.84-25.582,44.207-46.954,69.1-62.151,44.107-26.975,92.975-34.574,141.042-11.929,40.668,19.166,78.64,28.178,115.45,30.624,3.719.241,7.438.421,11.137.531,84.435,2.656,163.566-27.767,256.491-47.4,3.7-.782,7.408-1.554,11.147-2.286,66.291-13.192,139.829-20.149,227.28-5.523a189.541,189.541,0,0,1,26.825,6.415q5.784,1.865,11.147,4.01c41.741,16.981,64.506,48.357,74.18,87.672q1.373,5.473,2.376,11.137C1136.861,384.923,1086.629,519.068,1043.154,612.184Z" transform="translate(-79.34 -172.91)" fill="#3fe4fb" opacity="0.1"/><g transform="translate(10.936 13.703)" opacity="0.1"><path d="M242.407,217V727.857l-42.433.461a88.285,88.285,0,0,1-26.735-3.829V279.15h.07C194.151,253.538,217.517,232.167,242.407,217Z" transform="translate(-90.048 -186.506)" fill="#3fe4fb"/><path d="M1119.553,290.107H164.6q4.26-5.654,8.661-11.027V279h943.916Q1118.55,284.443,1119.553,290.107Z" transform="translate(-90.069 -186.356)" fill="#3fe4fb"/><path d="M1040.847,191.52V619.556h-3.478q-2.707,5.684-5.343,11.147c-.782,1.614-1.564,3.2-2.325,4.782V187.47Q1035.484,189.335,1040.847,191.52Z" transform="translate(-87.969 -186.578)" fill="#3fe4fb"/><path d="M776.237,186.58V722.127l-11.147.12V188.866C768.789,188.084,772.5,187.312,776.237,186.58Z" transform="translate(-88.612 -186.58)" fill="#3fe4fb"/><path d="M509.247,236.151V724.915l-11.137.12V235.62C501.829,235.861,505.548,236,509.247,236.151Z" transform="translate(-89.26 -186.461)" fill="#3fe4fb"/><path d="M1039.649,618.52q-2.706,5.684-5.343,11.147H93.859q-1.935-5.5-3.609-11.147Z" transform="translate(-90.25 -185.531)" fill="#3fe4fb"/></g><rect width="19.046" height="57.8" transform="translate(212.114 266.475)" fill="#3f3d56"/><rect width="19.046" height="61.148" transform="translate(724.685 263.468)" fill="#3f3d56"/><path d="M864.938,533.719v13.031l-152.289,1.4-1.624.03-57.88.531-1.383.02-17.593.15h-.521l-107.24.993-176.036,1.634h-.15l-44.758.421-.481.01L106.1,553.768V538.731l46.763-28.068,93.827-.782,2-.01.662-.01,2-.03,45.049-.371,2.015-.01.642-.01,2-.01,14.445-.12.381-.01,35.636-.3h.291L629.9,506.654l6.806-.05h.682l5.193-.05,37.741-.311,2-.03,1.854-.02h.962l11.738-.09,2.326-.03,3.117-.02,9.774-.09,15.508-.13,2.005-.02,3.488-.02h.652l74.891-.641Z" transform="translate(0.258 1.226)" fill="#65617d"/><path d="M864.938,533.719v13.031l-152.289,1.4-1.624.03-57.88.531-1.383.02-17.593.15h-.521l-107.24.993-176.036,1.634h-.15l-44.758.421-.481.01L106.1,553.768V538.731l46.763-28.068,93.827-.782,2-.01.662-.01,2-.03,45.049-.371,2.015-.01.642-.01,2-.01,14.445-.12.381-.01,35.636-.3h.291L629.9,506.654l6.806-.05h.682l5.193-.05,37.741-.311,2-.03,1.854-.02h.962l11.738-.09,2.326-.03,3.117-.02,9.774-.09,15.508-.13,2.005-.02,3.488-.02h.652l74.891-.641Z" transform="translate(0.258 1.226)" opacity="0.2"/><path d="M375.555,656.57v24.549a6.145,6.145,0,0,1-3.508,5.553,6.015,6.015,0,0,1-2.506.6l-34.985.742a6.015,6.015,0,0,1-2.707-.571,6.135,6.135,0,0,1-3.579-5.584V656.57Z" transform="translate(-78.736 -171.736)" fill="#3f3d56"/><path d="M375.555,656.57v24.549a6.145,6.145,0,0,1-3.508,5.553,6.015,6.015,0,0,1-2.506.6l-34.985.742a6.015,6.015,0,0,1-2.707-.571,6.135,6.135,0,0,1-3.579-5.584V656.57Z" transform="translate(-78.736 -171.736)" opacity="0.1"/><path d="M377.554,656.57v24.549a6.145,6.145,0,0,1-3.509,5.553,6.015,6.015,0,0,1-2.506.6l-34.985.742a6.015,6.015,0,0,1-2.707-.571,6.135,6.135,0,0,1-3.579-5.584V656.57Z" transform="translate(-78.731 -171.736)" fill="#3f3d56"/><rect width="47.285" height="31.576" transform="translate(682.583 484.834)" fill="#3f3d56"/><rect width="47.285" height="31.576" transform="translate(682.583 484.834)" opacity="0.1"/><rect width="47.285" height="31.576" transform="translate(680.578 484.834)" fill="#3f3d56"/><path d="M230.646,265.82v5.744l-19.046-.491V265.82Z" transform="translate(0.514 0.645)" opacity="0.1"/><path d="M435.528,277.352l-22.885,164.4a4.311,4.311,0,0,1-4.381,3.719l-183.244-4.751-3.478-.09a4.31,4.31,0,0,1-4.17-4.882l25.692-172.1a4.31,4.31,0,0,1,4.551-3.639l183.905,12.45a4.3,4.3,0,0,1,4.01,4.892Z" transform="translate(-79.005 -172.699)" fill="#65617d"/><path d="M175.977,99.16,156.6,250.857,325.008,256.2l20.71-146.354Z" transform="translate(0.38 0.241)" fill="#3fe4fb"/><rect width="205.167" height="173.751" rx="5.33" transform="translate(385.534 97.055)" fill="#65617d"/><rect width="186.452" height="144.68" transform="translate(395.217 108.753)" fill="#3fe4fb"/><path d="M741.976,262.82v3.8l-19.046.391v-4.19Z" transform="translate(1.755 0.638)" opacity="0.1"/><path d="M907.508,432.956a3.087,3.087,0,0,1-3.007,3.288l-187.655,3.879a3.087,3.087,0,0,1-3.138-2.8L697.58,269.641a3.087,3.087,0,0,1,2.927-3.378L886.738,257l2-.1a3.078,3.078,0,0,1,3.228,2.807Z" transform="translate(-77.839 -172.706)" fill="#65617d"/><path d="M628.93,103.18l170.082-8.36,14.365,152.369L644.638,251.2Z" transform="translate(1.527 0.23)" fill="#3fe4fb"/><path d="M907.05,432.956a3.087,3.087,0,0,1-3.007,3.288L886.28,257l2-.1a3.077,3.077,0,0,1,3.228,2.807Z" transform="translate(-77.381 -172.706)" opacity="0.1"/><path d="M247.643,260,225.019,440.718l-3.478-.09a4.311,4.311,0,0,1-4.17-4.882l25.692-172.1A4.31,4.31,0,0,1,247.643,260Z" transform="translate(-79.005 -172.699)" opacity="0.1"/><rect width="19.046" height="17.121" transform="translate(212.114 307.154)" opacity="0.1"/><path d="M298.214,483.65v4.982L250.93,489.9V483.65Z" transform="translate(0.609 1.174)" opacity="0.1"/><path d="M461.174,485.279V653.888a4.01,4.01,0,0,1-3.859,3.959L265.2,662.96h-.05a4.01,4.01,0,0,1-3.96-3.96V485.279a4.01,4.01,0,0,1,3.96-3.96H457.215A4.01,4.01,0,0,1,461.174,485.279Z" transform="translate(-78.899 -172.161)" fill="#65617d"/><path d="M265.2,481.32V662.96h-.05a4.01,4.01,0,0,1-3.96-3.96V485.279a4.01,4.01,0,0,1,3.96-3.96Z" transform="translate(-78.899 -172.161)" opacity="0.1"/><path d="M194.6,319.15H372.531V467.76L194.6,471.77Z" transform="translate(0.472 0.775)" fill="#d4dfec"/><rect width="19.046" height="17.462" transform="translate(724.685 307.154)" opacity="0.1"/><path d="M726.214,483.65v6.425l-47.284-1.263V483.65Z" transform="translate(1.648 1.174)" opacity="0.1"/><path d="M868.174,485.279V659a4.01,4.01,0,0,1-4.01,3.96h0l-192.155-5.112a4.01,4.01,0,0,1-3.859-3.96V485.279a4.01,4.01,0,0,1,3.96-3.96H864.175a4.01,4.01,0,0,1,4,3.96Z" transform="translate(-77.91 -172.161)" fill="#65617d"/><path d="M867.7,485.279V659a4.01,4.01,0,0,1-4.01,3.96h0V481.32h0a4.01,4.01,0,0,1,4.01,3.96Z" transform="translate(-77.436 -172.161)" opacity="0.1"/><path d="M776.031,319.15H598.1V467.76l177.931,4.01Z" transform="translate(1.452 0.775)" fill="#d4dfec"/><path d="M663.674,485.279V653.888a4.01,4.01,0,0,1-3.859,3.959L467.7,662.96h0a4.01,4.01,0,0,1-4.01-3.96V485.279a4.01,4.01,0,0,1,3.96-3.96H659.715A4.01,4.01,0,0,1,663.674,485.279Z" transform="translate(-78.407 -172.161)" fill="#65617d"/><path d="M397.1,319.15H575.031V467.76L397.1,471.77Z" transform="translate(0.964 0.775)" fill="#d4dfec"/><path d="M864.938,533.65v13.032l-152.289,1.4-1.624.03-57.88.531-1.383.02-17.593.15h-.521l-107.24.992-176.036,1.634h-.15l-44.758.421-.481.01L106.1,553.7V538.662l203-1.333h.481l41.09-.281h.19l283.767-1.875h.291l.17-.01h.471l4.8-.03h1.464l74.671-.5,4.411-.02.982-.01Z" transform="translate(0.258 1.295)" opacity="0.1"/><circle cx="51.455" cy="51.455" r="51.455" transform="translate(436.988 221.366)" fill="#fbbebe"/><path d="M383.74,726.005a1.242,1.242,0,0,1,.1-.351c1-3.6,2.787-9.683,4.12-14.545.171-.6.331-1.193.481-1.754,1.474-5.483,4.34-18.324,5.934-26.334.561-2.817,1-5.012,1.093-6.115.2-1.694,3.218-8.942,6.636-17.272,2.4-5.854,5.012-12.25,6.927-17.643a61.528,61.528,0,0,0,2.937-9.874,5.111,5.111,0,0,0,0-2.135,14.726,14.726,0,0,1-.481-3.509h0c-.231-6.215,1.624-16.039,4.491-20.159,3.509-5.012,6.015-23.717,6.015-23.717s5.193.752,6.015-3.539a6.166,6.166,0,0,0,.1-1.4,7.435,7.435,0,0,0-.09-1.113c-.892-6.255,14.756-12.911,23.557-14.345a19.7,19.7,0,0,1,3.007-.281,27.305,27.305,0,0,0,6.265-1.443q1.4-.431,3.007-1c3.689-1.243,8.1-2.887,12.781-4.692,17.6-6.826,38.914-16.039,38.914-16.039.15-.712.321-1.393.511-2.065A27.777,27.777,0,0,1,532.45,517.7h0v-2c0-3.458-.15-7.017-.3-10.566,0-.692-.06-1.383-.1-2.075v-1.133c0-.7-.07-1.4-.11-2.1l-.18-.14a16.449,16.449,0,0,1-3.909-4.21,15.3,15.3,0,0,1-1.424-3.007c-1.253-3.4-1.544-7.187-2.386-10.776l-.18-.742a84.2,84.2,0,0,0-4.01-10.606c-2.215-5.433-3.919-11.027-5.614-16.69q-1.544-5.142-3.117-10.3l-1.584-5.253c-.3-1-.6-2-.832-3.007h0a13.283,13.283,0,0,1-.261-1.4h0a10.022,10.022,0,0,1,.241-4.621,32.173,32.173,0,0,1,1.323-3.007,7.886,7.886,0,0,0,.5-1.383h0a3.007,3.007,0,0,0,.08-.321,5.666,5.666,0,0,0,.11-1.083,18.515,18.515,0,0,0-.521-3.9.071.071,0,0,1,0-.05,2.546,2.546,0,0,0-.05-.271,25.571,25.571,0,0,1-.361-3.007,28.521,28.521,0,0,1,3.478-15.608l.19-.361a25.3,25.3,0,0,1,1.844-2.787h0a14.117,14.117,0,0,1,1-1.223c-1.4,1.343-3.709.752-5.012-.692a3.617,3.617,0,0,1-.551-.752,3.808,3.808,0,0,1-.231-.451c-.05-.12-.09-.251-.13-.381-.7-2.456.521-5.072,2.125-7.067a18.532,18.532,0,0,1,5.754-4.711h0a3.869,3.869,0,0,1,.4-.211,17.166,17.166,0,0,1,2.646-1.063h0a15.1,15.1,0,0,1,1.634-.441l-3.719-.341-1.5-.14a14.525,14.525,0,0,1,13.032-10.937h1.083a11.754,11.754,0,0,1,1.574.13,4.451,4.451,0,0,1-2.656-4.341,14.445,14.445,0,0,0,9.212,3.067h.381a30.045,30.045,0,0,1-.341-3.278h0a33.248,33.248,0,0,1,0-4.471,8.46,8.46,0,0,0,6.8,2.265l-2.085-2.907a9.513,9.513,0,0,0,6.576,2.055l.481-.05a7.015,7.015,0,0,0,1.193-.231h.09c-.191-.241-.361-.491-.531-.752l-.06-.12a9.7,9.7,0,0,1-1-2.1,6.627,6.627,0,0,1-.241-.872h0a8.771,8.771,0,0,1,.451-5.463c3.238,2.707,6.786,6.406,11.027,3.609s4.381-7.929,11.027-7.408a10.225,10.225,0,0,1,8.43,6.135,6.767,6.767,0,0,1,7.689-1.754,6.866,6.866,0,0,1,3.889,6.907c2.757-.692,5.724-1.373,8.37-.331s4.351,4.421,2.847,6.676a1.426,1.426,0,0,1-.14.2c-1.233,1.594-3.959,2.466-3.669,4.471l.421.3,1.3.942q7.669,5.533,14.936,11.628c2.486,2.085,5.132,4.591,5.3,7.849a8.667,8.667,0,0,1-.241,2.376h0c-.16.782-.381,1.564-.551,2.346a19.559,19.559,0,0,0-.341,6.065h0c.07.591.16,1.173.271,1.764,1.534,7.749,7.729,14.144,8.34,22.053v.561a17.825,17.825,0,0,1-.07,2.536c-.461,4.812-2.686,9.433-4.491,14.034-.11.281-.22.561-.321.842-3.478,9.022-5.483,18.635-7.017,28.228a100.435,100.435,0,0,1-2,10.114,26.8,26.8,0,0,1-5.1,10.455,16.257,16.257,0,0,1-3.368,3.007,18.723,18.723,0,0,1-2.656,1.413v.06c.11.611.2,1.223.311,1.834.06.321.11.642.17,1h0a.135.135,0,0,0,0,.06c.842,4.742,1.8,9.383,2.817,13.793l.511,2.2c12.631,4.561,14.124,13.9,14.214,17.482a9.672,9.672,0,0,1,0,1.434s19.046.5,26.564,6.015a20.383,20.383,0,0,0,4.521,2.306,83.188,83.188,0,0,0,9.272,2.9c1.614.421,3.3.832,5.012,1.233,3.007.692,6.195,1.363,9.272,2,8.21,1.654,15.939,3.007,19.858,4.01,9.353,2.366,30.744,22.875,30.744,22.875s2.506,20.69,5.012,23.707,7.017,13.623,7.017,13.623l16.58,29.481,7.017,12.4h4.511c.622,0,1.845.882,3.218,2.105,1.193,1.063,2.516,2.386,3.679,3.589L777.754,663l1.2,1.333s7.288.18,9.262,5.944c5.934-.171,13.222.22,18.324,2.506a14.187,14.187,0,0,1,2,1.083,8.7,8.7,0,0,1,4.14,5.674,8.362,8.362,0,0,1,.18,1.443c0,.571,0,1.143,0,1.7-.361,7.588-5.3,13.9-9.844,18.154l.321.571s-.15.361-.441,1c-.08.19-.181.4-.291.642h0c-.591,1.263-1.534,3.158-2.767,5.373a63.461,63.461,0,0,1-9.593,13.2l-.291.3-57.88.531-.17-.2-11.227-13.392-5.583-6.656-.17-.211-.16,1.594-.541,5.313-1.3,12.841-.07.642v.17l-.15,1.484.11-1.484h-.291l-107.26,1L429.22,725.514v.842h-.14v-.842L384.221,726Z" transform="translate(-78.601 -172.485)" fill="url(#a)"/><path d="M618.16,550.337s-99.742,12.029-90.219,0c3.448-4.351,4.4-17.242,4.21-31.927-.06-4.461-.221-9.082-.451-13.683-1.1-22.053-3.759-43.606-3.759-43.606s87.211-41.1,77.187-8.521c-4.01,13.162-2.7,31.647.351,49,.892,5.062,1.924,10.024,3.007,14.736a345.517,345.517,0,0,0,9.674,34Z" transform="translate(-78.252 -172.262)" fill="#fbbebe"/><path d="M618.16,550.158s-99.742,12.029-90.219,0c3.448-4.35,4.4-17.242,4.21-31.927,15.207-6.5,34.554-1.654,34.554-1.654,20.369-4.06,33.431-3.268,41.781-.421a345.525,345.525,0,0,0,9.674,34Z" transform="translate(-78.252 -172.083)" opacity="0.1"/><path d="M429.189,725.949v-.842l176.046-1.915,107.26-1h.3l-.11,1.483.15-1.483h.19v-.171l1.373-13.483.521-5.1.16-1.594.14-1.333,6.2-20.66,6.2-20.63,5.213-17.372,7.959-26.544s-4.511-10.525-7.017-13.533-5.012-23.557-5.012-23.557-21.392-20.379-30.745-22.725c-3.919-1-11.658-2.336-19.878-4.01-3.078-.621-6.235-1.283-9.273-2-1.714-.391-3.4-.8-5.012-1.213a88.108,88.108,0,0,1-9.272-2.867,20.749,20.749,0,0,1-4.511-2.3c-7.368-5.4-25.833-6.015-26.544-6.015h0a.4.4,0,0,1,0-.07v-.09a10.333,10.333,0,0,0,0-1.263,8.034,8.034,0,0,0-.09-1.4,1.264,1.264,0,0,0-.07-.5c-.05-.361-.11-.742-.2-1.143a5.024,5.024,0,0,0-.12-.531,17.251,17.251,0,0,0-1.253-3.5c-.07-.16-.16-.331-.241-.491a18.281,18.281,0,0,0-1.7-2.636c-.13-.17-.27-.351-.421-.521a19.634,19.634,0,0,0-2.727-2.646c-.271-.21-.551-.431-.842-.632a4.7,4.7,0,0,0-.511-.361l-.892-.581-.832-.481c-.732-.4-1.5-.792-2.346-1.163-.261-.12-.541-.231-.822-.341s-.722-.281-1.093-.421h-.06l-.752-.3c-.571-.19-1.153-.361-1.764-.531l-.932-.241-1-.231-1-.211c-1-.2-2.075-.381-3.2-.521l-1.143-.14-1.173-.12-1.213-.1-1.724-.1-2-.07a125.017,125.017,0,0,0-26.315,2.8,72.439,72.439,0,0,0-18.293-1.686h-.872l-1,.06h-.642l-1.293.12a9.625,9.625,0,0,0-1.3.15c-.431.06-.882.11-1.313.181l-.662.11c-.652.11-1.313.231-2,.371q-.331.06-.662.15c-.872.19-1.744.421-2.606.682-.431.12-.862.261-1.293.411-.22.06-.431.141-.642.221l-.641.231-.632.251-.752.3c-.381.16-.752.331-1.123.511-.211.09-.421.191-.622.3s-.411.2-.6.311a27.82,27.82,0,0,0-6.225,4.391l-.511.491-.5.511c-.17.17-.331.351-.491.531a23.85,23.85,0,0,0-1.824,2.255c-.16.21-.311.421-.461.641a26.767,26.767,0,0,0-1.724,2.927c-.13.241-.251.491-.371.732a32.764,32.764,0,0,0-2,5.263q-.281,1-.511,2s-21.221,9.363-38.824,16.139c-4.681,1.8-9.092,3.438-12.781,4.671-1.073.361-2.075.692-3.007,1a26.771,26.771,0,0,1-6.265,1.443,19.714,19.714,0,0,0-3.007.281c-8.09,1.313-21.953,7.017-23.467,12.741a3.7,3.7,0,0,0-.1,1.4s0,.07,0,.11c1,7.017-6.015,6.015-6.015,6.015s-2.506,18.545-6.015,23.557c-2.536,3.609-4.27,11.658-4.491,17.733h0a19.657,19.657,0,0,0,.441,5.644v.14c.4,1.343-.561,5.012-2.2,9.714-1.774,5.163-4.361,11.578-6.846,17.633-3.749,9.142-7.278,17.442-7.5,19.267-.09.812-.351,2.266-.712,4.14-1.464,7.638-4.711,22.184-6.315,28.068-1.193,4.391-2.927,10.405-4.12,14.535a1.405,1.405,0,0,1-.1.351l44.939-.441v.842h.14Z" transform="translate(-78.6 -172.078)" fill="#3fe4fb"/><path d="M445.44,607.57s57.138,29.572,77.688,26.063Z" transform="translate(-78.451 -171.855)" opacity="0.1"/><path d="M561.44,595.57s55.635,18.044,74.18,20.55S561.44,595.57,561.44,595.57Z" transform="translate(-78.17 -171.884)" opacity="0.1"/><path d="M623.26,537.7c-29.07,5.353-83.8,4.2-107.46,3.388,8.671-31.075,50.953-20.51,50.953-20.51C619.09,510.131,623.1,531.8,623.26,537.7Z" transform="translate(-78.28 -172.073)" opacity="0.1"/><path d="M623.26,535.7c-29.07,5.353-83.8,4.2-107.46,3.388,8.671-31.075,50.953-20.51,50.953-20.51C619.09,508.131,623.1,529.8,623.26,535.7Z" transform="translate(-78.28 -172.078)" fill="#3fe4fb"/><path d="M776.94,672.322s34.243-5.263,34.915,9.774-17.462,25.542-17.462,25.542Z" transform="translate(-77.646 -171.7)" fill="#fbbebe"/><path d="M605.478,501.6a47.119,47.119,0,0,1-4.511,1.744c-10.806,3.729-21.7,7.488-33.08,8.852s-23.316.16-33.24-5.513a28.845,28.845,0,0,1-3.007-1.955c-1.1-22.053-3.759-43.606-3.759-43.606s87.211-41.1,77.187-8.521C601.077,465.762,602.431,484.247,605.478,501.6Z" transform="translate(-78.251 -172.262)" opacity="0.1"/><path d="M552.628,364.871a9.493,9.493,0,0,1-8.34-1.754l2.085,2.9a8.491,8.491,0,0,1-6.8-2.255,34.163,34.163,0,0,0,.321,7.769,14.555,14.555,0,0,1-9.583-3.007,4.431,4.431,0,0,0,2.646,4.32,14.375,14.375,0,0,0-15.638,10.736l5.233.481a18.514,18.514,0,0,0-10.465,6.385c-1.6,2-2.827,4.571-2.125,7.017s4.09,4.01,5.934,2.266a28.008,28.008,0,0,0-6.115,22.845,14.5,14.5,0,0,1,.461,5.273c-.331,1.654-1.373,3.087-1.895,4.7-1,2.927-.05,6.1.842,9.022l4.7,15.457c1.7,5.584,3.4,11.177,5.624,16.58a82.255,82.255,0,0,1,4.01,10.536c1.263,4.852,1.313,10.165,4.01,14.4a19.98,19.98,0,0,0,7.2,6.345c9.914,5.674,21.893,6.877,33.24,5.513s22.234-5.122,33.03-8.851a31.081,31.081,0,0,0,6.857-3.007c7.468-4.892,9.132-14.9,10.525-23.707,1.554-9.824,3.629-19.628,7.308-28.87,2.185-5.5,5.012-11.087,4.531-16.981-.611-7.829-6.806-14.174-8.34-21.873a19.046,19.046,0,0,1,.07-7.789,17.7,17.7,0,0,0,.792-4.711c-.17-3.228-2.817-5.714-5.3-7.789q-8.09-6.756-16.7-12.771c-.291-2,2.436-2.867,3.669-4.451,1.744-2.235-.06-5.784-2.707-6.827s-5.614-.361-8.37.331a6.606,6.606,0,0,0-11.578-5.122,10.225,10.225,0,0,0-8.44-6.095c-6.646-.521-6.776,4.561-11.027,7.358s-7.759-.892-11.027-3.579A9.3,9.3,0,0,0,552.628,364.871Z" transform="translate(-78.299 -172.476)" fill="#3f3d56"/><path d="M802.506,702.55s-.892,2.125-2.536,5.2a69.17,69.17,0,0,1-9.022,13.2l-.271.291h-1.624l-57.88.531H729.79l-.17-.2-11.227-13.322-4.23-5.022-.17-.21-.361-.421-.2-.241-.261-.311-8.23-9.764,3.007-12.53,5.122-21.111.13-.511,1-4.01.712-3.007,2.386-9.8,8.18-33.732,14.535,7.518,15.327,27.066,8.23,14.535h4.511c.852,0,2.807,1.644,4.772,3.539.7.672,1.4,1.383,2,2,1.784,1.844,3.2,3.428,3.2,3.428s7.308.16,9.273,5.914a6.988,6.988,0,0,1,.251.852,40.4,40.4,0,0,0,2.536,6.576c1.293,2.817,2.917,6.015,4.561,9.212,3.057,5.864,6.165,11.448,7.308,13.473l.14.251Z" transform="translate(-77.821 -171.855)" fill="#3fe4fb"/><path d="M717.068,657.2l-.1,1.434v.1l-.17,2.306-1.333,18.555-1.614,22.354-.461,6.3-1,13.473v.17l-107.26,1-176.016,1.9v.842h-.14v-1.123l.451-14.395.862-28.128.742-23.848.07-2.376a10.555,10.555,0,0,1,11.448-10.195c4.731.4,10.876.892,18.224,1.413l3.007.221c42.433,2.947,120.853,6.756,199.984,2,1.664-.09,3.338-.191,5.012-.311,12.27-.772,24.529-1.764,36.669-3.007a10.555,10.555,0,0,1,11.628,11.257Z" transform="translate(-78.491 -171.763)" opacity="0.1"/><path d="M429.08,725.624v-.842l176.046-1.915,107.26-1h.3v-.17l1-13.473.431-6.015,1.644-22.665,1.293-17.944v-.441a10.645,10.645,0,0,0-.11-2.476.3.3,0,0,0,0-.1,10.416,10.416,0,0,0-2-4.651,10.566,10.566,0,0,0-9.443-4.01c-12.139,1.243-24.4,2.235-36.669,3.007-1.674.12-3.348.22-5.012.311-79.132,4.7-157.552.892-199.984-2l-3.007-.22c-7.348-.521-13.493-1-18.224-1.413a10.565,10.565,0,0,0-11.267,8.551,11.03,11.03,0,0,0-.18,1.644l-.682,22.214-.932,28.138-.441,14.395v1.123Z" transform="translate(-78.491 -171.753)" fill="#3f3d56"/><path d="M717.368,664.2l-1.233,15.367L714.3,702.47l-.461,5.734-1,12.841-.06.642v.17h0l-.15,1.484.11-1.484h-.291l-107.26,1-176.076,1.9v-.281l.491-14.395,1-28.128.642-18.7A6.376,6.376,0,0,1,434.313,658a6.265,6.265,0,0,1,3.789-.9c2.105.17,4.691.371,7.709.591,4.9.361,10.946.782,17.984,1.223,13.032.822,29.381,1.7,48.117,2.426,52.126,2,122.5,2.676,189.339-3.178,3.007-.261,6.115-.551,9.152-.842a6.276,6.276,0,0,1,3.488.661,5.171,5.171,0,0,1,.862.541,6.154,6.154,0,0,1,2,2.466,3.568,3.568,0,0,1,.251.612A6.3,6.3,0,0,1,717.368,664.2Z" transform="translate(-78.491 -171.735)" opacity="0.1"/><path d="M377.554,677.87v3.2a6.145,6.145,0,0,1-3.509,5.553l-40.2.772a6.135,6.135,0,0,1-3.579-5.584V678.8Z" transform="translate(-78.731 -171.684)" opacity="0.1"/><path d="M298.727,515.591l-52.377,1V507.9l52.377-1Z" transform="translate(0.598 1.231)" fill="#3f3d56"/><path d="M298.727,515.591l-52.377,1V507.9l52.377-1Z" transform="translate(0.598 1.231)" opacity="0.1"/><path d="M300.727,515.591l-52.377,1V507.9l52.377-1Z" transform="translate(0.603 1.231)" fill="#3f3d56"/><g transform="translate(430.026 184.757)" opacity="0.1"><path d="M552.935,361.571a9.774,9.774,0,0,1-1.895-4.351,9.514,9.514,0,0,0,.421,4.611A9.025,9.025,0,0,0,552.935,361.571Z" transform="translate(-508.221 -357.22)"/><path d="M540.231,368.209a35.225,35.225,0,0,1-.371-3.709c0,1.233,0,2.476,0,3.719Z" transform="translate(-508.248 -357.202)"/><path d="M621.73,401.59a18.354,18.354,0,0,1,.361-2.656,18.045,18.045,0,0,0,.8-4.7,6.163,6.163,0,0,0-.16-1.063c-.17.922-.441,1.844-.641,2.757a19.178,19.178,0,0,0-.361,5.664Z" transform="translate(-508.049 -357.133)"/><path d="M600.93,370.682l1.093.792a19.749,19.749,0,0,0,2.576-2.225,3.679,3.679,0,0,0,.381-3.649,3,3,0,0,1-.381.642C603.366,367.825,600.639,368.7,600.93,370.682Z" transform="translate(-508.1 -357.2)"/><path d="M518.762,380.29a12.344,12.344,0,0,0-.872,2.286,18.206,18.206,0,0,1,5.012-1.895Z" transform="translate(-508.301 -357.164)"/><path d="M532.555,369.413a14.857,14.857,0,0,1-1.885-1.233,4.262,4.262,0,0,0,.09,1.183A11.89,11.89,0,0,1,532.555,369.413Z" transform="translate(-508.27 -357.193)"/><path d="M630.616,428.33c-.411,4.862-2.676,9.543-4.511,14.154-3.679,9.242-5.754,19.046-7.308,28.88-1.393,8.811-3.007,18.816-10.525,23.7a30.075,30.075,0,0,1-6.846,3.007c-10.806,3.739-21.7,7.488-33.08,8.851s-23.316.171-33.241-5.5a20.05,20.05,0,0,1-7.2-6.345c-2.676-4.24-2.727-9.553-4.01-14.4a82.39,82.39,0,0,0-4.01-10.545c-2.215-5.393-3.919-11.027-5.614-16.57q-2.356-7.729-4.7-15.467a28.868,28.868,0,0,1-1.143-4.761c-.391,2.566.371,5.253,1.143,7.769q2.346,7.749,4.7,15.467c1.694,5.583,3.4,11.177,5.614,16.57a82.4,82.4,0,0,1,4.01,10.546c1.263,4.852,1.313,10.164,4.01,14.4a20.05,20.05,0,0,0,7.2,6.345c9.924,5.674,21.893,6.867,33.241,5.5s22.234-5.112,33.08-8.851a30.074,30.074,0,0,0,6.847-3.007c7.468-4.882,9.132-14.886,10.525-23.7,1.554-9.834,3.629-19.638,7.308-28.88,2.185-5.493,5.012-11.077,4.531-16.981C630.636,428.45,630.616,428.39,630.616,428.33Z" transform="translate(-508.324 -357.047)"/><path d="M510.632,424.481v-.11a14.03,14.03,0,0,0-.461-5.263,26.646,26.646,0,0,1-.391-3.328,27.417,27.417,0,0,0,.391,6.335C510.331,422.9,510.512,423.689,510.632,424.481Z" transform="translate(-508.321 -357.078)"/><path d="M513.688,400.014a27.8,27.8,0,0,1,2.616-3.679c-1.834,1.754-5.223.19-5.934-2.245a5.843,5.843,0,0,0,0,3.007A4.4,4.4,0,0,0,513.688,400.014Z" transform="translate(-508.32 -357.13)"/></g><path d="M763.443,656.57s3.178,11.528,0,21.552S763.443,656.57,763.443,656.57Z" transform="translate(-77.683 -171.736)" opacity="0.1"/><path d="M776.946,668.3s1.333,14.635-1.674,17.232S776.946,668.3,776.946,668.3Z" transform="translate(-77.653 -171.707)" opacity="0.1"/><line y1="1.002" x2="101.857" transform="translate(199.473 342.69)" fill="none" stroke="#3fe4fb" stroke-miterlimit="10" stroke-width="2"/><line y1="0.992" x2="101.857" transform="translate(199.473 355.2)" fill="none" stroke="#3fe4fb" stroke-miterlimit="10" stroke-width="2"/><line y1="1.002" x2="101.857" transform="translate(199.473 367.7)" fill="none" stroke="#3fe4fb" stroke-miterlimit="10" stroke-width="2"/></g></svg>
